<?xml version="1.0" encoding="utf-8"?>
<!-- Generator: Adobe Illustrator 27.5.0, SVG Export Plug-In . SVG Version: 6.00 Build 0)  -->
<svg version="1.1" xmlns="http://www.w3.org/2000/svg" xmlns:xlink="http://www.w3.org/1999/xlink" x="0px" y="0px"
	 viewBox="0 0 750 500" style="enable-background:new 0 0 750 500;" xml:space="preserve">
<g id="Background_Simple">
	<g>
		<path style="fill:#92E3A9;" d="M743.214,267.27c4.318-85.151-42.888-163.782-116.969-198.473
			c-25.879-12.119-55.265-22.326-82.158-23.29c-69.182-2.48-155.658,29.759-211.475,41.332
			c-55.817,11.573-139.935-35.546-204.4-18.186C63.749,86.012-7.724,186.428,19.351,295.152s96.187,159.542,166.155,166.155
			s150.978-60.167,208.004-50.75c57.026,9.418,74.321,59.843,185.955,57.363c111.634-2.48,157.23-102.503,163.52-196.74
			C743.072,269.871,743.149,268.568,743.214,267.27z"/>
		<path style="opacity:0.8;fill:#FFFFFF;" d="M743.214,267.27c4.318-85.151-42.888-163.782-116.969-198.473
			c-25.879-12.119-55.265-22.326-82.158-23.29c-69.182-2.48-155.658,29.759-211.475,41.332
			c-55.817,11.573-139.935-35.546-204.4-18.186C63.749,86.012-7.724,186.428,19.351,295.152s96.187,159.542,166.155,166.155
			s150.978-60.167,208.004-50.75c57.026,9.418,74.321,59.843,185.955,57.363c111.634-2.48,157.23-102.503,163.52-196.74
			C743.072,269.871,743.149,268.568,743.214,267.27z"/>
	</g>
</g>
<g id="Floor">
	<ellipse style="opacity:0.3;" cx="372.646" cy="412.683" rx="337" ry="59.642"/>
</g>
<g id="Clouds">
	<path style="opacity:0.3;fill:none;stroke:#000000;stroke-miterlimit:10;" d="M321.109,25.888c0,0-5.592-9.151-14.235-8.643
		c-8.643,0.508-11.693,6.101-14.235,10.168s-3.559,1.525-10.168-0.508c-6.609-2.034-9.659,1.525-11.185,5.084
		c-1.525,3.559-1.017,1.017-7.117,0c-6.101-1.017-6.256,2.62-10.168,4.575c-3.185,1.592-3.867,1.661-7.39,0.707
		c-4.389-1.189-5.828-0.198-6.845,1.835h103.124c0,0-1.955-8.134-6.531-10.168C331.785,26.905,325.684,30.972,321.109,25.888z"/>
	<path style="opacity:0.3;fill:none;stroke:#000000;stroke-miterlimit:10;" d="M704.094,29.776c0,0-3.947-6.459-10.047-6.1
		c-6.1,0.359-8.253,4.306-10.047,7.177c-1.794,2.871-2.512,1.076-7.177-0.359c-4.665-1.435-6.818,1.076-7.894,3.588
		c-1.076,2.512-0.718,0.718-5.024,0c-4.306-0.718-4.416,1.849-7.177,3.229c-2.248,1.124-2.73,1.172-5.216,0.499
		c-3.098-0.839-4.114-0.14-4.831,1.295h72.788c0,0-1.38-5.741-4.609-7.177S707.323,33.364,704.094,29.776z"/>
	<path style="opacity:0.3;fill:none;stroke:#000000;stroke-miterlimit:10;" d="M78.161,23.19c0,0-3.112-5.093-7.922-4.81
		c-4.81,0.283-6.508,3.395-7.922,5.659c-1.415,2.263-1.981,0.849-5.659-0.283c-3.678-1.132-5.376,0.849-6.225,2.829
		c-0.849,1.98-0.566,0.566-3.961,0c-3.395-0.566-3.482,1.458-5.659,2.546c-1.772,0.886-2.152,0.924-4.113,0.393
		c-2.443-0.662-3.244-0.11-3.81,1.021h57.393c0,0-1.088-4.527-3.635-5.659C84.103,23.756,80.708,26.019,78.161,23.19z"/>
	<path style="opacity:0.3;fill:none;stroke:#000000;stroke-miterlimit:10;" d="M447.567,33.6c0,0-1.621-2.653-4.127-2.506
		c-2.506,0.147-3.39,1.769-4.127,2.948c-0.737,1.179-1.032,0.442-2.948-0.147c-1.916-0.59-2.8,0.442-3.242,1.474
		c-0.442,1.032-0.295,0.295-2.063,0c-1.769-0.295-1.814,0.76-2.948,1.326c-0.923,0.462-1.121,0.481-2.142,0.205
		c-1.272-0.345-1.69-0.057-1.984,0.532h29.897c0,0-0.567-2.358-1.893-2.948C450.662,33.895,448.894,35.074,447.567,33.6z"/>
</g>
<g id="Buildings">
	<g>
		<g>
			<polyline style="fill:none;stroke:#263238;stroke-miterlimit:10;" points="74.484,66.004 74.484,156.759 86.401,156.759 
				86.401,269.514 100.152,269.514 100.152,101.204 125.82,101.204 125.82,33.003 167.072,33.003 167.072,158.592 182.655,158.592 
				182.655,108.631 217.49,108.631 217.49,119.632 247.284,119.632 247.284,268.139 259.201,268.139 259.201,241.096 
				291.744,241.096 291.744,267.681 307.328,267.681 307.328,77.966 360.039,77.966 360.039,259.43 375.165,259.43 			"/>
			<polyline style="fill:none;stroke:#263238;stroke-miterlimit:10;" points="66.537,66.004 74.484,66.004 74.484,60.046 
				65.741,60.046 			"/>
			<rect x="99.995" y="101.204" style="fill:none;stroke:#263238;stroke-miterlimit:10;" width="25.824" height="3.016"/>
			<rect x="125.698" y="33.003" style="fill:none;stroke:#263238;stroke-miterlimit:10;" width="41.374" height="2.934"/>
			<rect x="185.937" y="102.402" style="fill:none;stroke:#263238;stroke-miterlimit:10;" width="6.024" height="6.225"/>
			<rect x="204.612" y="105.012" style="fill:none;stroke:#263238;stroke-miterlimit:10;" width="3.012" height="3.614"/>
			<rect x="217.49" y="119.632" style="fill:none;stroke:#263238;stroke-miterlimit:10;" width="29.892" height="3.653"/>
			<rect x="307.328" y="75.242" style="fill:none;stroke:#263238;stroke-miterlimit:10;" width="52.703" height="2.724"/>
			<rect x="320.875" y="69.82" style="fill:none;stroke:#263238;stroke-miterlimit:10;" width="20.883" height="5.422"/>
			<polyline style="fill:none;stroke:#263238;stroke-miterlimit:10;" points="337.34,70.021 337.34,65.001 352.601,65.001 
				352.601,75.041 			"/>
			<polyline style="fill:none;stroke:#263238;stroke-miterlimit:10;" points="236.756,118.132 236.756,77.556 285.061,77.556 
				285.061,111.176 301.677,111.176 301.677,53.983 363.666,53.983 363.666,123.156 367.625,123.156 			"/>
			<polyline style="fill:none;stroke:#263238;stroke-miterlimit:10;" points="201.977,98.037 201.977,53.211 169.13,53.211 			"/>
			<polyline style="fill:none;stroke:#263238;stroke-miterlimit:10;" points="98.412,109.244 87.592,109.244 87.592,77.942 
				77.158,77.942 			"/>
			<g>
				<rect x="128.941" y="41.618" style="fill:none;stroke:#263238;stroke-miterlimit:10;" width="4.147" height="8.115"/>
				<rect x="136.405" y="41.618" style="fill:none;stroke:#263238;stroke-miterlimit:10;" width="4.147" height="8.115"/>
				<rect x="143.87" y="41.618" style="fill:none;stroke:#263238;stroke-miterlimit:10;" width="4.147" height="8.115"/>
				<rect x="151.335" y="41.618" style="fill:none;stroke:#263238;stroke-miterlimit:10;" width="4.147" height="8.115"/>
				<rect x="158.8" y="41.618" style="fill:none;stroke:#263238;stroke-miterlimit:10;" width="4.147" height="8.115"/>
			</g>
			<g>
				<rect x="128.941" y="55.336" style="fill:none;stroke:#263238;stroke-miterlimit:10;" width="4.147" height="8.115"/>
				<rect x="136.405" y="55.336" style="fill:none;stroke:#263238;stroke-miterlimit:10;" width="4.147" height="8.115"/>
				<rect x="143.87" y="55.336" style="fill:none;stroke:#263238;stroke-miterlimit:10;" width="4.147" height="8.115"/>
				<rect x="151.335" y="55.336" style="fill:none;stroke:#263238;stroke-miterlimit:10;" width="4.147" height="8.115"/>
				<rect x="158.8" y="55.336" style="fill:none;stroke:#263238;stroke-miterlimit:10;" width="4.147" height="8.115"/>
			</g>
			<g>
				<rect x="128.941" y="69.054" style="fill:none;stroke:#263238;stroke-miterlimit:10;" width="4.147" height="8.115"/>
				<rect x="136.405" y="69.054" style="fill:none;stroke:#263238;stroke-miterlimit:10;" width="4.147" height="8.115"/>
				<rect x="143.87" y="69.054" style="fill:none;stroke:#263238;stroke-miterlimit:10;" width="4.147" height="8.115"/>
				<rect x="151.335" y="69.054" style="fill:none;stroke:#263238;stroke-miterlimit:10;" width="4.147" height="8.115"/>
				<rect x="158.8" y="69.054" style="fill:none;stroke:#263238;stroke-miterlimit:10;" width="4.147" height="8.115"/>
			</g>
			<g>
				<rect x="128.941" y="82.773" style="fill:none;stroke:#263238;stroke-miterlimit:10;" width="4.147" height="8.115"/>
				<rect x="136.405" y="82.773" style="fill:none;stroke:#263238;stroke-miterlimit:10;" width="4.147" height="8.115"/>
				<rect x="143.87" y="82.773" style="fill:none;stroke:#263238;stroke-miterlimit:10;" width="4.147" height="8.115"/>
				<rect x="151.335" y="82.773" style="fill:none;stroke:#263238;stroke-miterlimit:10;" width="4.147" height="8.115"/>
				<rect x="158.8" y="82.773" style="fill:none;stroke:#263238;stroke-miterlimit:10;" width="4.147" height="8.115"/>
			</g>
			<g>
				<rect x="128.941" y="96.491" style="fill:none;stroke:#263238;stroke-miterlimit:10;" width="4.147" height="8.115"/>
				<rect x="136.405" y="96.491" style="fill:none;stroke:#263238;stroke-miterlimit:10;" width="4.147" height="8.115"/>
				<rect x="143.87" y="96.491" style="fill:none;stroke:#263238;stroke-miterlimit:10;" width="4.147" height="8.115"/>
				<rect x="151.335" y="96.491" style="fill:none;stroke:#263238;stroke-miterlimit:10;" width="4.147" height="8.115"/>
				<rect x="158.8" y="96.491" style="fill:none;stroke:#263238;stroke-miterlimit:10;" width="4.147" height="8.115"/>
			</g>
			<g>
				<rect x="128.941" y="110.21" style="fill:none;stroke:#263238;stroke-miterlimit:10;" width="4.147" height="8.115"/>
				<rect x="136.405" y="110.21" style="fill:none;stroke:#263238;stroke-miterlimit:10;" width="4.147" height="8.115"/>
				<rect x="143.87" y="110.21" style="fill:none;stroke:#263238;stroke-miterlimit:10;" width="4.147" height="8.115"/>
				<rect x="151.335" y="110.21" style="fill:none;stroke:#263238;stroke-miterlimit:10;" width="4.147" height="8.115"/>
				<rect x="158.8" y="110.21" style="fill:none;stroke:#263238;stroke-miterlimit:10;" width="4.147" height="8.115"/>
			</g>
			<g>
				<g>
					<rect x="103.491" y="110.21" style="fill:none;stroke:#263238;stroke-miterlimit:10;" width="4.147" height="8.115"/>
					<rect x="110.956" y="110.21" style="fill:none;stroke:#263238;stroke-miterlimit:10;" width="4.147" height="8.115"/>
					<rect x="118.421" y="110.21" style="fill:none;stroke:#263238;stroke-miterlimit:10;" width="4.147" height="8.115"/>
				</g>
				<g>
					<rect x="103.491" y="123.542" style="fill:none;stroke:#263238;stroke-miterlimit:10;" width="4.147" height="8.115"/>
					<rect x="110.956" y="123.542" style="fill:none;stroke:#263238;stroke-miterlimit:10;" width="4.147" height="8.115"/>
					<rect x="118.421" y="123.542" style="fill:none;stroke:#263238;stroke-miterlimit:10;" width="4.147" height="8.115"/>
				</g>
				<g>
					<rect x="103.491" y="136.874" style="fill:none;stroke:#263238;stroke-miterlimit:10;" width="4.147" height="8.115"/>
					<rect x="110.956" y="136.874" style="fill:none;stroke:#263238;stroke-miterlimit:10;" width="4.147" height="8.115"/>
					<rect x="118.421" y="136.874" style="fill:none;stroke:#263238;stroke-miterlimit:10;" width="4.147" height="8.115"/>
				</g>
				<g>
					<rect x="103.491" y="150.206" style="fill:none;stroke:#263238;stroke-miterlimit:10;" width="4.147" height="8.115"/>
					<rect x="110.956" y="150.206" style="fill:none;stroke:#263238;stroke-miterlimit:10;" width="4.147" height="8.115"/>
					<rect x="118.421" y="150.206" style="fill:none;stroke:#263238;stroke-miterlimit:10;" width="4.147" height="8.115"/>
				</g>
				<g>
					<rect x="103.491" y="163.538" style="fill:none;stroke:#263238;stroke-miterlimit:10;" width="4.147" height="8.115"/>
					<rect x="110.956" y="163.538" style="fill:none;stroke:#263238;stroke-miterlimit:10;" width="4.147" height="8.115"/>
					<rect x="118.421" y="163.538" style="fill:none;stroke:#263238;stroke-miterlimit:10;" width="4.147" height="8.115"/>
				</g>
				<g>
					<rect x="103.491" y="176.87" style="fill:none;stroke:#263238;stroke-miterlimit:10;" width="4.147" height="8.115"/>
					<rect x="110.956" y="176.87" style="fill:none;stroke:#263238;stroke-miterlimit:10;" width="4.147" height="8.115"/>
					<rect x="118.421" y="176.87" style="fill:none;stroke:#263238;stroke-miterlimit:10;" width="4.147" height="8.115"/>
				</g>
				<g>
					<rect x="103.491" y="190.202" style="fill:none;stroke:#263238;stroke-miterlimit:10;" width="4.147" height="8.115"/>
					<rect x="110.956" y="190.202" style="fill:none;stroke:#263238;stroke-miterlimit:10;" width="4.147" height="8.115"/>
					<rect x="118.421" y="190.202" style="fill:none;stroke:#263238;stroke-miterlimit:10;" width="4.147" height="8.115"/>
				</g>
				<g>
					<rect x="103.491" y="203.534" style="fill:none;stroke:#263238;stroke-miterlimit:10;" width="4.147" height="8.115"/>
					<rect x="110.956" y="203.534" style="fill:none;stroke:#263238;stroke-miterlimit:10;" width="4.147" height="8.115"/>
					<rect x="118.421" y="203.534" style="fill:none;stroke:#263238;stroke-miterlimit:10;" width="4.147" height="8.115"/>
				</g>
				<g>
					<rect x="103.491" y="216.866" style="fill:none;stroke:#263238;stroke-miterlimit:10;" width="4.147" height="8.115"/>
					<rect x="110.956" y="216.866" style="fill:none;stroke:#263238;stroke-miterlimit:10;" width="4.147" height="8.115"/>
					<rect x="118.421" y="216.866" style="fill:none;stroke:#263238;stroke-miterlimit:10;" width="4.147" height="8.115"/>
				</g>
				<g>
					<rect x="103.491" y="230.198" style="fill:none;stroke:#263238;stroke-miterlimit:10;" width="4.147" height="8.115"/>
					<rect x="110.956" y="230.198" style="fill:none;stroke:#263238;stroke-miterlimit:10;" width="4.147" height="8.115"/>
					<rect x="118.421" y="230.198" style="fill:none;stroke:#263238;stroke-miterlimit:10;" width="4.147" height="8.115"/>
				</g>
				<g>
					<rect x="103.491" y="243.53" style="fill:none;stroke:#263238;stroke-miterlimit:10;" width="4.147" height="8.115"/>
					<rect x="110.956" y="243.53" style="fill:none;stroke:#263238;stroke-miterlimit:10;" width="4.147" height="8.115"/>
					<rect x="118.421" y="243.53" style="fill:none;stroke:#263238;stroke-miterlimit:10;" width="4.147" height="8.115"/>
				</g>
			</g>
			<g>
				<g>
					<rect x="170.049" y="165.084" style="fill:none;stroke:#263238;stroke-miterlimit:10;" width="4.147" height="8.115"/>
					<rect x="177.514" y="165.084" style="fill:none;stroke:#263238;stroke-miterlimit:10;" width="4.147" height="8.115"/>
				</g>
				<g>
					<rect x="170.049" y="178.416" style="fill:none;stroke:#263238;stroke-miterlimit:10;" width="4.147" height="8.115"/>
					<rect x="177.514" y="178.416" style="fill:none;stroke:#263238;stroke-miterlimit:10;" width="4.147" height="8.115"/>
				</g>
				<g>
					<rect x="170.049" y="191.748" style="fill:none;stroke:#263238;stroke-miterlimit:10;" width="4.147" height="8.115"/>
					<rect x="177.514" y="191.748" style="fill:none;stroke:#263238;stroke-miterlimit:10;" width="4.147" height="8.115"/>
				</g>
				<g>
					<rect x="170.049" y="205.08" style="fill:none;stroke:#263238;stroke-miterlimit:10;" width="4.147" height="8.115"/>
					<rect x="177.514" y="205.08" style="fill:none;stroke:#263238;stroke-miterlimit:10;" width="4.147" height="8.115"/>
				</g>
				<g>
					<rect x="170.049" y="218.412" style="fill:none;stroke:#263238;stroke-miterlimit:10;" width="4.147" height="8.115"/>
					<rect x="177.514" y="218.412" style="fill:none;stroke:#263238;stroke-miterlimit:10;" width="4.147" height="8.115"/>
				</g>
				<g>
					<rect x="170.049" y="231.744" style="fill:none;stroke:#263238;stroke-miterlimit:10;" width="4.147" height="8.115"/>
					<rect x="177.514" y="231.744" style="fill:none;stroke:#263238;stroke-miterlimit:10;" width="4.147" height="8.115"/>
				</g>
				<g>
					<rect x="170.049" y="245.076" style="fill:none;stroke:#263238;stroke-miterlimit:10;" width="4.147" height="8.115"/>
					<rect x="177.514" y="245.076" style="fill:none;stroke:#263238;stroke-miterlimit:10;" width="4.147" height="8.115"/>
				</g>
			</g>
			<g>
				<rect x="128.941" y="123.928" style="fill:none;stroke:#263238;stroke-miterlimit:10;" width="4.147" height="8.115"/>
				<rect x="136.405" y="123.928" style="fill:none;stroke:#263238;stroke-miterlimit:10;" width="4.147" height="8.115"/>
				<rect x="143.87" y="123.928" style="fill:none;stroke:#263238;stroke-miterlimit:10;" width="4.147" height="8.115"/>
				<rect x="151.335" y="123.928" style="fill:none;stroke:#263238;stroke-miterlimit:10;" width="4.147" height="8.115"/>
				<rect x="158.8" y="123.928" style="fill:none;stroke:#263238;stroke-miterlimit:10;" width="4.147" height="8.115"/>
			</g>
			<g>
				<rect x="128.941" y="137.647" style="fill:none;stroke:#263238;stroke-miterlimit:10;" width="4.147" height="8.115"/>
				<rect x="136.405" y="137.647" style="fill:none;stroke:#263238;stroke-miterlimit:10;" width="4.147" height="8.115"/>
				<rect x="143.87" y="137.647" style="fill:none;stroke:#263238;stroke-miterlimit:10;" width="4.147" height="8.115"/>
				<rect x="151.335" y="137.647" style="fill:none;stroke:#263238;stroke-miterlimit:10;" width="4.147" height="8.115"/>
				<rect x="158.8" y="137.647" style="fill:none;stroke:#263238;stroke-miterlimit:10;" width="4.147" height="8.115"/>
			</g>
			<g>
				<rect x="128.941" y="151.365" style="fill:none;stroke:#263238;stroke-miterlimit:10;" width="4.147" height="8.115"/>
				<rect x="136.405" y="151.365" style="fill:none;stroke:#263238;stroke-miterlimit:10;" width="4.147" height="8.115"/>
				<rect x="143.87" y="151.365" style="fill:none;stroke:#263238;stroke-miterlimit:10;" width="4.147" height="8.115"/>
				<rect x="151.335" y="151.365" style="fill:none;stroke:#263238;stroke-miterlimit:10;" width="4.147" height="8.115"/>
				<rect x="158.8" y="151.365" style="fill:none;stroke:#263238;stroke-miterlimit:10;" width="4.147" height="8.115"/>
			</g>
			<g>
				<rect x="128.941" y="165.084" style="fill:none;stroke:#263238;stroke-miterlimit:10;" width="4.147" height="8.115"/>
				<rect x="136.405" y="165.084" style="fill:none;stroke:#263238;stroke-miterlimit:10;" width="4.147" height="8.115"/>
				<rect x="143.87" y="165.084" style="fill:none;stroke:#263238;stroke-miterlimit:10;" width="4.147" height="8.115"/>
				<rect x="151.335" y="165.084" style="fill:none;stroke:#263238;stroke-miterlimit:10;" width="4.147" height="8.115"/>
				<rect x="158.8" y="165.084" style="fill:none;stroke:#263238;stroke-miterlimit:10;" width="4.147" height="8.115"/>
			</g>
			<g>
				<rect x="128.941" y="178.802" style="fill:none;stroke:#263238;stroke-miterlimit:10;" width="4.147" height="8.115"/>
				<rect x="136.405" y="178.802" style="fill:none;stroke:#263238;stroke-miterlimit:10;" width="4.147" height="8.115"/>
				<rect x="143.87" y="178.802" style="fill:none;stroke:#263238;stroke-miterlimit:10;" width="4.147" height="8.115"/>
				<rect x="151.335" y="178.802" style="fill:none;stroke:#263238;stroke-miterlimit:10;" width="4.147" height="8.115"/>
				<rect x="158.8" y="178.802" style="fill:none;stroke:#263238;stroke-miterlimit:10;" width="4.147" height="8.115"/>
			</g>
			<g>
				<rect x="128.941" y="192.521" style="fill:none;stroke:#263238;stroke-miterlimit:10;" width="4.147" height="8.115"/>
				<rect x="136.405" y="192.521" style="fill:none;stroke:#263238;stroke-miterlimit:10;" width="4.147" height="8.115"/>
				<rect x="143.87" y="192.521" style="fill:none;stroke:#263238;stroke-miterlimit:10;" width="4.147" height="8.115"/>
				<rect x="151.335" y="192.521" style="fill:none;stroke:#263238;stroke-miterlimit:10;" width="4.147" height="8.115"/>
				<rect x="158.8" y="192.521" style="fill:none;stroke:#263238;stroke-miterlimit:10;" width="4.147" height="8.115"/>
			</g>
			<g>
				<rect x="128.941" y="206.239" style="fill:none;stroke:#263238;stroke-miterlimit:10;" width="4.147" height="8.115"/>
				<rect x="136.405" y="206.239" style="fill:none;stroke:#263238;stroke-miterlimit:10;" width="4.147" height="8.115"/>
				<rect x="143.87" y="206.239" style="fill:none;stroke:#263238;stroke-miterlimit:10;" width="4.147" height="8.115"/>
				<rect x="151.335" y="206.239" style="fill:none;stroke:#263238;stroke-miterlimit:10;" width="4.147" height="8.115"/>
				<rect x="158.8" y="206.239" style="fill:none;stroke:#263238;stroke-miterlimit:10;" width="4.147" height="8.115"/>
			</g>
			<g>
				<rect x="128.941" y="219.958" style="fill:none;stroke:#263238;stroke-miterlimit:10;" width="4.147" height="8.115"/>
				<rect x="136.405" y="219.958" style="fill:none;stroke:#263238;stroke-miterlimit:10;" width="4.147" height="8.115"/>
				<rect x="143.87" y="219.958" style="fill:none;stroke:#263238;stroke-miterlimit:10;" width="4.147" height="8.115"/>
				<rect x="151.335" y="219.958" style="fill:none;stroke:#263238;stroke-miterlimit:10;" width="4.147" height="8.115"/>
				<rect x="158.8" y="219.958" style="fill:none;stroke:#263238;stroke-miterlimit:10;" width="4.147" height="8.115"/>
			</g>
			<g>
				<rect x="128.941" y="233.676" style="fill:none;stroke:#263238;stroke-miterlimit:10;" width="4.147" height="8.115"/>
				<rect x="136.405" y="233.676" style="fill:none;stroke:#263238;stroke-miterlimit:10;" width="4.147" height="8.115"/>
				<rect x="143.87" y="233.676" style="fill:none;stroke:#263238;stroke-miterlimit:10;" width="4.147" height="8.115"/>
				<rect x="151.335" y="233.676" style="fill:none;stroke:#263238;stroke-miterlimit:10;" width="4.147" height="8.115"/>
				<rect x="158.8" y="233.676" style="fill:none;stroke:#263238;stroke-miterlimit:10;" width="4.147" height="8.115"/>
			</g>
			<g>
				<rect x="128.941" y="247.781" style="fill:none;stroke:#263238;stroke-miterlimit:10;" width="4.147" height="8.115"/>
				<rect x="136.405" y="247.781" style="fill:none;stroke:#263238;stroke-miterlimit:10;" width="4.147" height="8.115"/>
				<rect x="143.87" y="247.781" style="fill:none;stroke:#263238;stroke-miterlimit:10;" width="4.147" height="8.115"/>
				<rect x="151.335" y="247.781" style="fill:none;stroke:#263238;stroke-miterlimit:10;" width="4.147" height="8.115"/>
				<rect x="158.8" y="247.781" style="fill:none;stroke:#263238;stroke-miterlimit:10;" width="4.147" height="8.115"/>
			</g>
			<line style="fill:none;stroke:#263238;stroke-miterlimit:10;" x1="125.82" y1="104.22" x2="125.82" y2="269.615"/>
			<line style="fill:none;stroke:#263238;stroke-miterlimit:10;" x1="189.225" y1="111.949" x2="189.225" y2="267.296"/>
			<line style="fill:none;stroke:#263238;stroke-miterlimit:10;" x1="197.34" y1="111.949" x2="197.34" y2="267.296"/>
			<line style="fill:none;stroke:#263238;stroke-miterlimit:10;" x1="205.455" y1="111.949" x2="205.455" y2="267.296"/>
			<line style="fill:none;stroke:#263238;stroke-miterlimit:10;" x1="213.57" y1="111.949" x2="213.57" y2="267.296"/>
			<line style="fill:none;stroke:#263238;stroke-miterlimit:10;" x1="221.685" y1="127.406" x2="221.685" y2="267.296"/>
			<line style="fill:none;stroke:#263238;stroke-miterlimit:10;" x1="229.8" y1="127.406" x2="229.8" y2="267.296"/>
			<line style="fill:none;stroke:#263238;stroke-miterlimit:10;" x1="237.915" y1="127.406" x2="237.915" y2="267.296"/>
			<line style="fill:none;stroke:#263238;stroke-miterlimit:10;" x1="60.56" y1="74.851" x2="71.748" y2="74.851"/>
			<line style="fill:none;stroke:#263238;stroke-miterlimit:10;" x1="60.56" y1="84.898" x2="71.748" y2="84.898"/>
			<line style="fill:none;stroke:#263238;stroke-miterlimit:10;" x1="60.56" y1="94.946" x2="71.748" y2="94.946"/>
			<line style="fill:none;stroke:#263238;stroke-miterlimit:10;" x1="60.56" y1="104.993" x2="71.748" y2="104.993"/>
			<line style="fill:none;stroke:#263238;stroke-miterlimit:10;" x1="60.56" y1="115.04" x2="71.748" y2="115.04"/>
			<line style="fill:none;stroke:#263238;stroke-miterlimit:10;" x1="60.56" y1="125.088" x2="71.748" y2="125.088"/>
			<line style="fill:none;stroke:#263238;stroke-miterlimit:10;" x1="60.56" y1="135.135" x2="71.748" y2="135.135"/>
			<line style="fill:none;stroke:#263238;stroke-miterlimit:10;" x1="60.56" y1="145.182" x2="71.748" y2="145.182"/>
			<line style="fill:none;stroke:#263238;stroke-miterlimit:10;" x1="60.56" y1="155.23" x2="71.748" y2="155.23"/>
			<line style="fill:none;stroke:#263238;stroke-miterlimit:10;" x1="60.56" y1="165.277" x2="71.748" y2="165.277"/>
			<line style="fill:none;stroke:#263238;stroke-miterlimit:10;" x1="60.56" y1="175.324" x2="71.748" y2="175.324"/>
			<line style="fill:none;stroke:#263238;stroke-miterlimit:10;" x1="60.56" y1="185.372" x2="71.748" y2="185.372"/>
			<line style="fill:none;stroke:#263238;stroke-miterlimit:10;" x1="60.56" y1="195.419" x2="71.748" y2="195.419"/>
			<line style="fill:none;stroke:#263238;stroke-miterlimit:10;" x1="60.56" y1="205.467" x2="71.748" y2="205.467"/>
			<line style="fill:none;stroke:#263238;stroke-miterlimit:10;" x1="60.56" y1="215.514" x2="71.748" y2="215.514"/>
			<line style="fill:none;stroke:#263238;stroke-miterlimit:10;" x1="60.56" y1="225.561" x2="71.748" y2="225.561"/>
			<line style="fill:none;stroke:#263238;stroke-miterlimit:10;" x1="60.56" y1="235.609" x2="71.748" y2="235.609"/>
			<line style="fill:none;stroke:#263238;stroke-miterlimit:10;" x1="60.56" y1="245.656" x2="71.748" y2="245.656"/>
			<line style="fill:none;stroke:#263238;stroke-miterlimit:10;" x1="60.56" y1="255.703" x2="71.748" y2="255.703"/>
			<line style="fill:none;stroke:#263238;stroke-miterlimit:10;" x1="60.56" y1="265.75" x2="71.748" y2="265.75"/>
			<line style="fill:none;stroke:#263238;stroke-miterlimit:10;" x1="60.56" y1="275.798" x2="71.748" y2="275.798"/>
			<rect x="309.02" y="137.84" style="fill:none;stroke:#263238;stroke-miterlimit:10;" width="48.691" height="4.637"/>
			<rect x="309.02" y="129.738" style="fill:none;stroke:#263238;stroke-miterlimit:10;" width="48.691" height="4.637"/>
			<rect x="309.02" y="121.636" style="fill:none;stroke:#263238;stroke-miterlimit:10;" width="48.691" height="4.637"/>
			<rect x="309.02" y="113.535" style="fill:none;stroke:#263238;stroke-miterlimit:10;" width="48.691" height="4.637"/>
			<rect x="309.02" y="105.433" style="fill:none;stroke:#263238;stroke-miterlimit:10;" width="48.691" height="4.637"/>
			<rect x="309.02" y="97.331" style="fill:none;stroke:#263238;stroke-miterlimit:10;" width="48.691" height="4.637"/>
			<rect x="309.02" y="89.229" style="fill:none;stroke:#263238;stroke-miterlimit:10;" width="48.691" height="4.637"/>
			<rect x="309.02" y="81.127" style="fill:none;stroke:#263238;stroke-miterlimit:10;" width="48.691" height="4.637"/>
			<rect x="309.02" y="145.955" style="fill:none;stroke:#263238;stroke-miterlimit:10;" width="48.691" height="4.637"/>
			<rect x="309.02" y="154.07" style="fill:none;stroke:#263238;stroke-miterlimit:10;" width="48.691" height="4.637"/>
			<rect x="309.02" y="162.186" style="fill:none;stroke:#263238;stroke-miterlimit:10;" width="48.691" height="4.637"/>
			<rect x="309.02" y="170.301" style="fill:none;stroke:#263238;stroke-miterlimit:10;" width="48.691" height="4.637"/>
			<rect x="309.02" y="178.416" style="fill:none;stroke:#263238;stroke-miterlimit:10;" width="48.691" height="4.637"/>
			<rect x="309.02" y="186.531" style="fill:none;stroke:#263238;stroke-miterlimit:10;" width="48.691" height="4.637"/>
			<rect x="309.02" y="194.646" style="fill:none;stroke:#263238;stroke-miterlimit:10;" width="48.691" height="4.637"/>
			<rect x="309.02" y="202.761" style="fill:none;stroke:#263238;stroke-miterlimit:10;" width="48.691" height="4.637"/>
			<rect x="309.02" y="210.877" style="fill:none;stroke:#263238;stroke-miterlimit:10;" width="48.691" height="4.637"/>
			<rect x="309.02" y="218.992" style="fill:none;stroke:#263238;stroke-miterlimit:10;" width="48.691" height="4.637"/>
			<rect x="309.02" y="227.107" style="fill:none;stroke:#263238;stroke-miterlimit:10;" width="48.691" height="4.637"/>
			<rect x="309.02" y="235.222" style="fill:none;stroke:#263238;stroke-miterlimit:10;" width="48.691" height="4.637"/>
			<rect x="309.02" y="243.337" style="fill:none;stroke:#263238;stroke-miterlimit:10;" width="48.691" height="4.637"/>
			<rect x="309.02" y="251.452" style="fill:none;stroke:#263238;stroke-miterlimit:10;" width="48.691" height="4.637"/>
			<rect x="309.02" y="259.568" style="fill:none;stroke:#263238;stroke-miterlimit:10;" width="48.691" height="4.637"/>
			<rect x="309.02" y="267.683" style="fill:none;stroke:#263238;stroke-miterlimit:10;" width="48.691" height="4.637"/>
			<rect x="263.807" y="228.266" style="fill:none;stroke:#263238;stroke-miterlimit:10;" width="24.345" height="12.752"/>
			<rect x="269.603" y="205.853" style="fill:none;stroke:#263238;stroke-miterlimit:10;" width="12.752" height="22.413"/>
			<line style="fill:none;stroke:#263238;stroke-miterlimit:10;" x1="167.072" y1="158.592" x2="167.072" y2="269.308"/>
			<line style="fill:none;stroke:#263238;stroke-miterlimit:10;" x1="306.905" y1="146.457" x2="247.789" y2="146.457"/>
			<line style="fill:none;stroke:#263238;stroke-miterlimit:10;" x1="306.905" y1="153.062" x2="247.789" y2="153.062"/>
			<g>
				<rect x="250.431" y="158.016" style="fill:none;stroke:#263238;stroke-miterlimit:10;" width="9.017" height="6.605"/>
				<rect x="261.552" y="158.016" style="fill:none;stroke:#263238;stroke-miterlimit:10;" width="9.017" height="6.605"/>
				<rect x="272.673" y="158.016" style="fill:none;stroke:#263238;stroke-miterlimit:10;" width="9.017" height="6.605"/>
				<rect x="283.794" y="158.016" style="fill:none;stroke:#263238;stroke-miterlimit:10;" width="9.017" height="6.605"/>
				<rect x="294.915" y="158.016" style="fill:none;stroke:#263238;stroke-miterlimit:10;" width="9.017" height="6.605"/>
			</g>
			<g>
				<rect x="250.431" y="168.254" style="fill:none;stroke:#263238;stroke-miterlimit:10;" width="9.017" height="6.605"/>
				<rect x="261.552" y="168.254" style="fill:none;stroke:#263238;stroke-miterlimit:10;" width="9.017" height="6.605"/>
				<rect x="272.673" y="168.254" style="fill:none;stroke:#263238;stroke-miterlimit:10;" width="9.017" height="6.605"/>
				<rect x="283.794" y="168.254" style="fill:none;stroke:#263238;stroke-miterlimit:10;" width="9.017" height="6.605"/>
				<rect x="294.915" y="168.254" style="fill:none;stroke:#263238;stroke-miterlimit:10;" width="9.017" height="6.605"/>
			</g>
			<g>
				<rect x="250.431" y="178.492" style="fill:none;stroke:#263238;stroke-miterlimit:10;" width="9.017" height="6.605"/>
				<rect x="261.552" y="178.492" style="fill:none;stroke:#263238;stroke-miterlimit:10;" width="9.017" height="6.605"/>
				<rect x="272.673" y="178.492" style="fill:none;stroke:#263238;stroke-miterlimit:10;" width="9.017" height="6.605"/>
				<rect x="283.794" y="178.492" style="fill:none;stroke:#263238;stroke-miterlimit:10;" width="9.017" height="6.605"/>
				<rect x="294.915" y="178.492" style="fill:none;stroke:#263238;stroke-miterlimit:10;" width="9.017" height="6.605"/>
			</g>
			<g>
				<rect x="250.431" y="196.986" style="fill:none;stroke:#263238;stroke-miterlimit:10;" width="9.017" height="6.605"/>
				<rect x="261.552" y="196.986" style="fill:none;stroke:#263238;stroke-miterlimit:10;" width="9.017" height="6.605"/>
				<rect x="272.673" y="196.986" style="fill:none;stroke:#263238;stroke-miterlimit:10;" width="9.017" height="6.605"/>
				<rect x="283.794" y="196.986" style="fill:none;stroke:#263238;stroke-miterlimit:10;" width="9.017" height="6.605"/>
				<rect x="294.915" y="196.986" style="fill:none;stroke:#263238;stroke-miterlimit:10;" width="9.017" height="6.605"/>
			</g>
		</g>
		<g>
			<polyline style="fill:none;stroke:#263238;stroke-miterlimit:10;" points="686.814,66.004 686.814,156.759 674.897,156.759 
				674.897,269.514 661.146,269.514 661.146,154.258 635.479,154.258 635.479,33.003 594.227,33.003 594.227,158.592 
				578.643,158.592 578.643,108.631 543.808,108.631 543.808,119.632 514.014,119.632 514.014,268.139 502.097,268.139 
				502.097,241.096 469.554,241.096 469.554,267.681 453.97,267.681 453.97,133.841 401.259,133.841 401.259,259.43 386.133,259.43 
							"/>
			<polyline style="fill:none;stroke:#263238;stroke-miterlimit:10;" points="694.761,66.004 686.814,66.004 686.814,60.046 
				695.558,60.046 			"/>
			
				<rect x="635.479" y="154.258" transform="matrix(-1 -1.224647e-16 1.224647e-16 -1 1296.7815 311.5331)" style="fill:none;stroke:#263238;stroke-miterlimit:10;" width="25.824" height="3.016"/>
			
				<rect x="594.227" y="33.003" transform="matrix(-1 -1.224647e-16 1.224647e-16 -1 1229.827 68.9401)" style="fill:none;stroke:#263238;stroke-miterlimit:10;" width="41.374" height="2.934"/>
			
				<rect x="569.337" y="102.402" transform="matrix(-1 -1.224647e-16 1.224647e-16 -1 1144.6973 211.0289)" style="fill:none;stroke:#263238;stroke-miterlimit:10;" width="6.024" height="6.225"/>
			
				<rect x="553.674" y="105.012" transform="matrix(-1 -1.224647e-16 1.224647e-16 -1 1110.3606 213.6394)" style="fill:none;stroke:#263238;stroke-miterlimit:10;" width="3.012" height="3.614"/>
			
				<rect x="513.916" y="119.632" transform="matrix(-1 -1.224647e-16 1.224647e-16 -1 1057.7235 242.9172)" style="fill:none;stroke:#263238;stroke-miterlimit:10;" width="29.892" height="3.653"/>
			
				<rect x="401.267" y="131.116" transform="matrix(-1 -1.224647e-16 1.224647e-16 -1 855.2373 264.9573)" style="fill:none;stroke:#263238;stroke-miterlimit:10;" width="52.703" height="2.724"/>
			
				<rect x="419.54" y="125.695" transform="matrix(-1 -1.224647e-16 1.224647e-16 -1 859.9633 256.8112)" style="fill:none;stroke:#263238;stroke-miterlimit:10;" width="20.883" height="5.422"/>
			<polyline style="fill:none;stroke:#263238;stroke-miterlimit:10;" points="423.958,125.896 423.958,120.876 408.697,120.876 
				408.697,130.916 			"/>
			<polyline style="fill:none;stroke:#263238;stroke-miterlimit:10;" points="524.542,118.132 524.542,77.556 476.237,77.556 
				476.237,111.176 459.621,111.176 459.621,53.983 406.292,53.983 406.292,123.156 391.971,123.156 			"/>
			<polyline style="fill:none;stroke:#263238;stroke-miterlimit:10;" points="367.287,194.872 367.287,103.237 391.971,103.237 
				391.971,190.815 398.057,190.815 			"/>
			<polyline style="fill:none;stroke:#263238;stroke-miterlimit:10;" points="559.321,98.037 559.321,53.211 592.168,53.211 			"/>
			<polyline style="fill:none;stroke:#263238;stroke-miterlimit:10;" points="684.14,77.942 673.706,77.942 673.706,128.458 
				662.886,128.458 662.886,99.548 656.202,99.548 656.202,122.995 651.317,122.995 651.317,89.127 644.804,89.127 644.804,122.344 
				637.965,122.344 			"/>
			<g>
				
					<rect x="628.211" y="41.618" transform="matrix(-1 -1.224647e-16 1.224647e-16 -1 1260.568 91.3501)" style="fill:none;stroke:#263238;stroke-miterlimit:10;" width="4.147" height="8.115"/>
				
					<rect x="620.746" y="41.618" transform="matrix(-1 -1.224647e-16 1.224647e-16 -1 1245.6384 91.3501)" style="fill:none;stroke:#263238;stroke-miterlimit:10;" width="4.147" height="8.115"/>
				
					<rect x="613.281" y="41.618" transform="matrix(-1 -1.224647e-16 1.224647e-16 -1 1230.7086 91.3501)" style="fill:none;stroke:#263238;stroke-miterlimit:10;" width="4.147" height="8.115"/>
				
					<rect x="605.816" y="41.618" transform="matrix(-1 -1.224647e-16 1.224647e-16 -1 1215.7791 91.3501)" style="fill:none;stroke:#263238;stroke-miterlimit:10;" width="4.147" height="8.115"/>
				
					<rect x="598.351" y="41.618" transform="matrix(-1 -1.224647e-16 1.224647e-16 -1 1200.8495 91.3501)" style="fill:none;stroke:#263238;stroke-miterlimit:10;" width="4.147" height="8.115"/>
			</g>
			<g>
				
					<rect x="628.211" y="55.336" transform="matrix(-1 -1.224647e-16 1.224647e-16 -1 1260.568 118.787)" style="fill:none;stroke:#263238;stroke-miterlimit:10;" width="4.147" height="8.115"/>
				
					<rect x="620.746" y="55.336" transform="matrix(-1 -1.224647e-16 1.224647e-16 -1 1245.6384 118.787)" style="fill:none;stroke:#263238;stroke-miterlimit:10;" width="4.147" height="8.115"/>
				
					<rect x="613.281" y="55.336" transform="matrix(-1 -1.224647e-16 1.224647e-16 -1 1230.7086 118.787)" style="fill:none;stroke:#263238;stroke-miterlimit:10;" width="4.147" height="8.115"/>
				
					<rect x="605.816" y="55.336" transform="matrix(-1 -1.224647e-16 1.224647e-16 -1 1215.7791 118.787)" style="fill:none;stroke:#263238;stroke-miterlimit:10;" width="4.147" height="8.115"/>
				
					<rect x="598.351" y="55.336" transform="matrix(-1 -1.224647e-16 1.224647e-16 -1 1200.8495 118.787)" style="fill:none;stroke:#263238;stroke-miterlimit:10;" width="4.147" height="8.115"/>
			</g>
			<g>
				
					<rect x="628.211" y="69.054" transform="matrix(-1 -1.224647e-16 1.224647e-16 -1 1260.568 146.2241)" style="fill:none;stroke:#263238;stroke-miterlimit:10;" width="4.147" height="8.115"/>
				
					<rect x="620.746" y="69.054" transform="matrix(-1 -1.224647e-16 1.224647e-16 -1 1245.6384 146.2241)" style="fill:none;stroke:#263238;stroke-miterlimit:10;" width="4.147" height="8.115"/>
				
					<rect x="613.281" y="69.054" transform="matrix(-1 -1.224647e-16 1.224647e-16 -1 1230.7086 146.2241)" style="fill:none;stroke:#263238;stroke-miterlimit:10;" width="4.147" height="8.115"/>
				
					<rect x="605.816" y="69.054" transform="matrix(-1 -1.224647e-16 1.224647e-16 -1 1215.7791 146.2241)" style="fill:none;stroke:#263238;stroke-miterlimit:10;" width="4.147" height="8.115"/>
				
					<rect x="598.351" y="69.054" transform="matrix(-1 -1.224647e-16 1.224647e-16 -1 1200.8495 146.2241)" style="fill:none;stroke:#263238;stroke-miterlimit:10;" width="4.147" height="8.115"/>
			</g>
			<g>
				
					<rect x="628.211" y="82.773" transform="matrix(-1 -1.224647e-16 1.224647e-16 -1 1260.568 173.661)" style="fill:none;stroke:#263238;stroke-miterlimit:10;" width="4.147" height="8.115"/>
				
					<rect x="620.746" y="82.773" transform="matrix(-1 -1.224647e-16 1.224647e-16 -1 1245.6384 173.661)" style="fill:none;stroke:#263238;stroke-miterlimit:10;" width="4.147" height="8.115"/>
				
					<rect x="613.281" y="82.773" transform="matrix(-1 -1.224647e-16 1.224647e-16 -1 1230.7086 173.661)" style="fill:none;stroke:#263238;stroke-miterlimit:10;" width="4.147" height="8.115"/>
				
					<rect x="605.816" y="82.773" transform="matrix(-1 -1.224647e-16 1.224647e-16 -1 1215.7791 173.661)" style="fill:none;stroke:#263238;stroke-miterlimit:10;" width="4.147" height="8.115"/>
				
					<rect x="598.351" y="82.773" transform="matrix(-1 -1.224647e-16 1.224647e-16 -1 1200.8495 173.661)" style="fill:none;stroke:#263238;stroke-miterlimit:10;" width="4.147" height="8.115"/>
			</g>
			<g>
				
					<rect x="628.211" y="96.491" transform="matrix(-1 -1.224647e-16 1.224647e-16 -1 1260.568 201.098)" style="fill:none;stroke:#263238;stroke-miterlimit:10;" width="4.147" height="8.115"/>
				
					<rect x="620.746" y="96.491" transform="matrix(-1 -1.224647e-16 1.224647e-16 -1 1245.6384 201.098)" style="fill:none;stroke:#263238;stroke-miterlimit:10;" width="4.147" height="8.115"/>
				
					<rect x="613.281" y="96.491" transform="matrix(-1 -1.224647e-16 1.224647e-16 -1 1230.7086 201.098)" style="fill:none;stroke:#263238;stroke-miterlimit:10;" width="4.147" height="8.115"/>
				
					<rect x="605.816" y="96.491" transform="matrix(-1 -1.224647e-16 1.224647e-16 -1 1215.7791 201.098)" style="fill:none;stroke:#263238;stroke-miterlimit:10;" width="4.147" height="8.115"/>
				
					<rect x="598.351" y="96.491" transform="matrix(-1 -1.224647e-16 1.224647e-16 -1 1200.8495 201.098)" style="fill:none;stroke:#263238;stroke-miterlimit:10;" width="4.147" height="8.115"/>
			</g>
			<g>
				
					<rect x="628.211" y="110.21" transform="matrix(-1 -1.224647e-16 1.224647e-16 -1 1260.568 228.535)" style="fill:none;stroke:#263238;stroke-miterlimit:10;" width="4.147" height="8.115"/>
				
					<rect x="620.746" y="110.21" transform="matrix(-1 -1.224647e-16 1.224647e-16 -1 1245.6384 228.535)" style="fill:none;stroke:#263238;stroke-miterlimit:10;" width="4.147" height="8.115"/>
				
					<rect x="613.281" y="110.21" transform="matrix(-1 -1.224647e-16 1.224647e-16 -1 1230.7086 228.535)" style="fill:none;stroke:#263238;stroke-miterlimit:10;" width="4.147" height="8.115"/>
				
					<rect x="605.816" y="110.21" transform="matrix(-1 -1.224647e-16 1.224647e-16 -1 1215.7791 228.535)" style="fill:none;stroke:#263238;stroke-miterlimit:10;" width="4.147" height="8.115"/>
				
					<rect x="598.351" y="110.21" transform="matrix(-1 -1.224647e-16 1.224647e-16 -1 1200.8495 228.535)" style="fill:none;stroke:#263238;stroke-miterlimit:10;" width="4.147" height="8.115"/>
			</g>
			<g>
				<g>
					
						<rect x="653.66" y="163.538" transform="matrix(-1 -1.224647e-16 1.224647e-16 -1 1311.4668 335.1914)" style="fill:none;stroke:#263238;stroke-miterlimit:10;" width="4.147" height="8.115"/>
					
						<rect x="646.195" y="163.538" transform="matrix(-1 -1.224647e-16 1.224647e-16 -1 1296.5371 335.1914)" style="fill:none;stroke:#263238;stroke-miterlimit:10;" width="4.147" height="8.115"/>
					
						<rect x="638.73" y="163.538" transform="matrix(-1 -1.224647e-16 1.224647e-16 -1 1281.6074 335.1914)" style="fill:none;stroke:#263238;stroke-miterlimit:10;" width="4.147" height="8.115"/>
				</g>
				<g>
					
						<rect x="653.66" y="176.87" transform="matrix(-1 -1.224647e-16 1.224647e-16 -1 1311.4668 361.8554)" style="fill:none;stroke:#263238;stroke-miterlimit:10;" width="4.147" height="8.115"/>
					
						<rect x="646.195" y="176.87" transform="matrix(-1 -1.224647e-16 1.224647e-16 -1 1296.5371 361.8554)" style="fill:none;stroke:#263238;stroke-miterlimit:10;" width="4.147" height="8.115"/>
					
						<rect x="638.73" y="176.87" transform="matrix(-1 -1.224647e-16 1.224647e-16 -1 1281.6074 361.8554)" style="fill:none;stroke:#263238;stroke-miterlimit:10;" width="4.147" height="8.115"/>
				</g>
				<g>
					
						<rect x="653.66" y="190.202" transform="matrix(-1 -1.224647e-16 1.224647e-16 -1 1311.4668 388.5196)" style="fill:none;stroke:#263238;stroke-miterlimit:10;" width="4.147" height="8.115"/>
					
						<rect x="646.195" y="190.202" transform="matrix(-1 -1.224647e-16 1.224647e-16 -1 1296.5371 388.5196)" style="fill:none;stroke:#263238;stroke-miterlimit:10;" width="4.147" height="8.115"/>
					
						<rect x="638.73" y="190.202" transform="matrix(-1 -1.224647e-16 1.224647e-16 -1 1281.6074 388.5196)" style="fill:none;stroke:#263238;stroke-miterlimit:10;" width="4.147" height="8.115"/>
				</g>
				<g>
					
						<rect x="653.66" y="203.534" transform="matrix(-1 -1.224647e-16 1.224647e-16 -1 1311.4668 415.1837)" style="fill:none;stroke:#263238;stroke-miterlimit:10;" width="4.147" height="8.115"/>
					
						<rect x="646.195" y="203.534" transform="matrix(-1 -1.224647e-16 1.224647e-16 -1 1296.5371 415.1837)" style="fill:none;stroke:#263238;stroke-miterlimit:10;" width="4.147" height="8.115"/>
					
						<rect x="638.73" y="203.534" transform="matrix(-1 -1.224647e-16 1.224647e-16 -1 1281.6074 415.1837)" style="fill:none;stroke:#263238;stroke-miterlimit:10;" width="4.147" height="8.115"/>
				</g>
				<g>
					
						<rect x="653.66" y="216.866" transform="matrix(-1 -1.224647e-16 1.224647e-16 -1 1311.4668 441.8478)" style="fill:none;stroke:#263238;stroke-miterlimit:10;" width="4.147" height="8.115"/>
					
						<rect x="646.195" y="216.866" transform="matrix(-1 -1.224647e-16 1.224647e-16 -1 1296.5371 441.8478)" style="fill:none;stroke:#263238;stroke-miterlimit:10;" width="4.147" height="8.115"/>
					
						<rect x="638.73" y="216.866" transform="matrix(-1 -1.224647e-16 1.224647e-16 -1 1281.6074 441.8478)" style="fill:none;stroke:#263238;stroke-miterlimit:10;" width="4.147" height="8.115"/>
				</g>
				<g>
					
						<rect x="653.66" y="230.198" transform="matrix(-1 -1.224647e-16 1.224647e-16 -1 1311.4668 468.5119)" style="fill:none;stroke:#263238;stroke-miterlimit:10;" width="4.147" height="8.115"/>
					
						<rect x="646.195" y="230.198" transform="matrix(-1 -1.224647e-16 1.224647e-16 -1 1296.5371 468.5119)" style="fill:none;stroke:#263238;stroke-miterlimit:10;" width="4.147" height="8.115"/>
					
						<rect x="638.73" y="230.198" transform="matrix(-1 -1.224647e-16 1.224647e-16 -1 1281.6074 468.5119)" style="fill:none;stroke:#263238;stroke-miterlimit:10;" width="4.147" height="8.115"/>
				</g>
				<g>
					
						<rect x="653.66" y="243.53" transform="matrix(-1 -1.224647e-16 1.224647e-16 -1 1311.4668 495.176)" style="fill:none;stroke:#263238;stroke-miterlimit:10;" width="4.147" height="8.115"/>
					
						<rect x="646.195" y="243.53" transform="matrix(-1 -1.224647e-16 1.224647e-16 -1 1296.5371 495.176)" style="fill:none;stroke:#263238;stroke-miterlimit:10;" width="4.147" height="8.115"/>
					
						<rect x="638.73" y="243.53" transform="matrix(-1 -1.224647e-16 1.224647e-16 -1 1281.6074 495.176)" style="fill:none;stroke:#263238;stroke-miterlimit:10;" width="4.147" height="8.115"/>
				</g>
			</g>
			<g>
				
					<rect x="628.211" y="123.928" transform="matrix(-1 -1.224647e-16 1.224647e-16 -1 1260.568 255.972)" style="fill:none;stroke:#263238;stroke-miterlimit:10;" width="4.147" height="8.115"/>
				
					<rect x="620.746" y="123.928" transform="matrix(-1 -1.224647e-16 1.224647e-16 -1 1245.6384 255.972)" style="fill:none;stroke:#263238;stroke-miterlimit:10;" width="4.147" height="8.115"/>
				
					<rect x="613.281" y="123.928" transform="matrix(-1 -1.224647e-16 1.224647e-16 -1 1230.7086 255.972)" style="fill:none;stroke:#263238;stroke-miterlimit:10;" width="4.147" height="8.115"/>
				
					<rect x="605.816" y="123.928" transform="matrix(-1 -1.224647e-16 1.224647e-16 -1 1215.7791 255.972)" style="fill:none;stroke:#263238;stroke-miterlimit:10;" width="4.147" height="8.115"/>
				
					<rect x="598.351" y="123.928" transform="matrix(-1 -1.224647e-16 1.224647e-16 -1 1200.8495 255.972)" style="fill:none;stroke:#263238;stroke-miterlimit:10;" width="4.147" height="8.115"/>
			</g>
			<g>
				
					<rect x="628.211" y="137.647" transform="matrix(-1 -1.224647e-16 1.224647e-16 -1 1260.568 283.4089)" style="fill:none;stroke:#263238;stroke-miterlimit:10;" width="4.147" height="8.115"/>
				
					<rect x="620.746" y="137.647" transform="matrix(-1 -1.224647e-16 1.224647e-16 -1 1245.6384 283.4089)" style="fill:none;stroke:#263238;stroke-miterlimit:10;" width="4.147" height="8.115"/>
				
					<rect x="613.281" y="137.647" transform="matrix(-1 -1.224647e-16 1.224647e-16 -1 1230.7086 283.4089)" style="fill:none;stroke:#263238;stroke-miterlimit:10;" width="4.147" height="8.115"/>
				
					<rect x="605.816" y="137.647" transform="matrix(-1 -1.224647e-16 1.224647e-16 -1 1215.7791 283.4089)" style="fill:none;stroke:#263238;stroke-miterlimit:10;" width="4.147" height="8.115"/>
				
					<rect x="598.351" y="137.647" transform="matrix(-1 -1.224647e-16 1.224647e-16 -1 1200.8495 283.4089)" style="fill:none;stroke:#263238;stroke-miterlimit:10;" width="4.147" height="8.115"/>
			</g>
			<g>
				
					<rect x="628.211" y="151.365" transform="matrix(-1 -1.224647e-16 1.224647e-16 -1 1260.568 310.8459)" style="fill:none;stroke:#263238;stroke-miterlimit:10;" width="4.147" height="8.115"/>
				
					<rect x="620.746" y="151.365" transform="matrix(-1 -1.224647e-16 1.224647e-16 -1 1245.6384 310.8459)" style="fill:none;stroke:#263238;stroke-miterlimit:10;" width="4.147" height="8.115"/>
				
					<rect x="613.281" y="151.365" transform="matrix(-1 -1.224647e-16 1.224647e-16 -1 1230.7086 310.8459)" style="fill:none;stroke:#263238;stroke-miterlimit:10;" width="4.147" height="8.115"/>
				
					<rect x="605.816" y="151.365" transform="matrix(-1 -1.224647e-16 1.224647e-16 -1 1215.7791 310.8459)" style="fill:none;stroke:#263238;stroke-miterlimit:10;" width="4.147" height="8.115"/>
				
					<rect x="598.351" y="151.365" transform="matrix(-1 -1.224647e-16 1.224647e-16 -1 1200.8495 310.8459)" style="fill:none;stroke:#263238;stroke-miterlimit:10;" width="4.147" height="8.115"/>
			</g>
			<g>
				
					<rect x="628.211" y="165.084" transform="matrix(-1 -1.224647e-16 1.224647e-16 -1 1260.568 338.2829)" style="fill:none;stroke:#263238;stroke-miterlimit:10;" width="4.147" height="8.115"/>
				
					<rect x="620.746" y="165.084" transform="matrix(-1 -1.224647e-16 1.224647e-16 -1 1245.6384 338.2829)" style="fill:none;stroke:#263238;stroke-miterlimit:10;" width="4.147" height="8.115"/>
				
					<rect x="613.281" y="165.084" transform="matrix(-1 -1.224647e-16 1.224647e-16 -1 1230.7086 338.2829)" style="fill:none;stroke:#263238;stroke-miterlimit:10;" width="4.147" height="8.115"/>
				
					<rect x="605.816" y="165.084" transform="matrix(-1 -1.224647e-16 1.224647e-16 -1 1215.7791 338.2829)" style="fill:none;stroke:#263238;stroke-miterlimit:10;" width="4.147" height="8.115"/>
				
					<rect x="598.351" y="165.084" transform="matrix(-1 -1.224647e-16 1.224647e-16 -1 1200.8495 338.2829)" style="fill:none;stroke:#263238;stroke-miterlimit:10;" width="4.147" height="8.115"/>
			</g>
			<g>
				
					<rect x="628.211" y="178.802" transform="matrix(-1 -1.224647e-16 1.224647e-16 -1 1260.568 365.7198)" style="fill:none;stroke:#263238;stroke-miterlimit:10;" width="4.147" height="8.115"/>
				
					<rect x="620.746" y="178.802" transform="matrix(-1 -1.224647e-16 1.224647e-16 -1 1245.6384 365.7198)" style="fill:none;stroke:#263238;stroke-miterlimit:10;" width="4.147" height="8.115"/>
				
					<rect x="613.281" y="178.802" transform="matrix(-1 -1.224647e-16 1.224647e-16 -1 1230.7086 365.7198)" style="fill:none;stroke:#263238;stroke-miterlimit:10;" width="4.147" height="8.115"/>
				
					<rect x="605.816" y="178.802" transform="matrix(-1 -1.224647e-16 1.224647e-16 -1 1215.7791 365.7198)" style="fill:none;stroke:#263238;stroke-miterlimit:10;" width="4.147" height="8.115"/>
				
					<rect x="598.351" y="178.802" transform="matrix(-1 -1.224647e-16 1.224647e-16 -1 1200.8495 365.7198)" style="fill:none;stroke:#263238;stroke-miterlimit:10;" width="4.147" height="8.115"/>
			</g>
			<g>
				
					<rect x="628.211" y="192.521" transform="matrix(-1 -1.224647e-16 1.224647e-16 -1 1260.568 393.1569)" style="fill:none;stroke:#263238;stroke-miterlimit:10;" width="4.147" height="8.115"/>
				
					<rect x="620.746" y="192.521" transform="matrix(-1 -1.224647e-16 1.224647e-16 -1 1245.6384 393.1569)" style="fill:none;stroke:#263238;stroke-miterlimit:10;" width="4.147" height="8.115"/>
				
					<rect x="613.281" y="192.521" transform="matrix(-1 -1.224647e-16 1.224647e-16 -1 1230.7086 393.1569)" style="fill:none;stroke:#263238;stroke-miterlimit:10;" width="4.147" height="8.115"/>
				
					<rect x="605.816" y="192.521" transform="matrix(-1 -1.224647e-16 1.224647e-16 -1 1215.7791 393.1569)" style="fill:none;stroke:#263238;stroke-miterlimit:10;" width="4.147" height="8.115"/>
				
					<rect x="598.351" y="192.521" transform="matrix(-1 -1.224647e-16 1.224647e-16 -1 1200.8495 393.1569)" style="fill:none;stroke:#263238;stroke-miterlimit:10;" width="4.147" height="8.115"/>
			</g>
			<g>
				
					<rect x="628.211" y="206.239" transform="matrix(-1 -1.224647e-16 1.224647e-16 -1 1260.568 420.5938)" style="fill:none;stroke:#263238;stroke-miterlimit:10;" width="4.147" height="8.115"/>
				
					<rect x="620.746" y="206.239" transform="matrix(-1 -1.224647e-16 1.224647e-16 -1 1245.6384 420.5938)" style="fill:none;stroke:#263238;stroke-miterlimit:10;" width="4.147" height="8.115"/>
				
					<rect x="613.281" y="206.239" transform="matrix(-1 -1.224647e-16 1.224647e-16 -1 1230.7086 420.5938)" style="fill:none;stroke:#263238;stroke-miterlimit:10;" width="4.147" height="8.115"/>
				
					<rect x="605.816" y="206.239" transform="matrix(-1 -1.224647e-16 1.224647e-16 -1 1215.7791 420.5938)" style="fill:none;stroke:#263238;stroke-miterlimit:10;" width="4.147" height="8.115"/>
				
					<rect x="598.351" y="206.239" transform="matrix(-1 -1.224647e-16 1.224647e-16 -1 1200.8495 420.5938)" style="fill:none;stroke:#263238;stroke-miterlimit:10;" width="4.147" height="8.115"/>
			</g>
			<g>
				
					<rect x="628.211" y="219.958" transform="matrix(-1 -1.224647e-16 1.224647e-16 -1 1260.568 448.0308)" style="fill:none;stroke:#263238;stroke-miterlimit:10;" width="4.147" height="8.115"/>
				
					<rect x="620.746" y="219.958" transform="matrix(-1 -1.224647e-16 1.224647e-16 -1 1245.6384 448.0308)" style="fill:none;stroke:#263238;stroke-miterlimit:10;" width="4.147" height="8.115"/>
				
					<rect x="613.281" y="219.958" transform="matrix(-1 -1.224647e-16 1.224647e-16 -1 1230.7086 448.0308)" style="fill:none;stroke:#263238;stroke-miterlimit:10;" width="4.147" height="8.115"/>
				
					<rect x="605.816" y="219.958" transform="matrix(-1 -1.224647e-16 1.224647e-16 -1 1215.7791 448.0308)" style="fill:none;stroke:#263238;stroke-miterlimit:10;" width="4.147" height="8.115"/>
				
					<rect x="598.351" y="219.958" transform="matrix(-1 -1.224647e-16 1.224647e-16 -1 1200.8495 448.0308)" style="fill:none;stroke:#263238;stroke-miterlimit:10;" width="4.147" height="8.115"/>
			</g>
			<g>
				
					<rect x="628.211" y="233.676" transform="matrix(-1 -1.224647e-16 1.224647e-16 -1 1260.568 475.4678)" style="fill:none;stroke:#263238;stroke-miterlimit:10;" width="4.147" height="8.115"/>
				
					<rect x="620.746" y="233.676" transform="matrix(-1 -1.224647e-16 1.224647e-16 -1 1245.6384 475.4678)" style="fill:none;stroke:#263238;stroke-miterlimit:10;" width="4.147" height="8.115"/>
				
					<rect x="613.281" y="233.676" transform="matrix(-1 -1.224647e-16 1.224647e-16 -1 1230.7086 475.4678)" style="fill:none;stroke:#263238;stroke-miterlimit:10;" width="4.147" height="8.115"/>
				
					<rect x="605.816" y="233.676" transform="matrix(-1 -1.224647e-16 1.224647e-16 -1 1215.7791 475.4678)" style="fill:none;stroke:#263238;stroke-miterlimit:10;" width="4.147" height="8.115"/>
				
					<rect x="598.351" y="233.676" transform="matrix(-1 -1.224647e-16 1.224647e-16 -1 1200.8495 475.4678)" style="fill:none;stroke:#263238;stroke-miterlimit:10;" width="4.147" height="8.115"/>
			</g>
			<g>
				
					<rect x="628.211" y="247.781" transform="matrix(-1 -1.224647e-16 1.224647e-16 -1 1260.568 503.6776)" style="fill:none;stroke:#263238;stroke-miterlimit:10;" width="4.147" height="8.115"/>
				
					<rect x="620.746" y="247.781" transform="matrix(-1 -1.224647e-16 1.224647e-16 -1 1245.6384 503.6776)" style="fill:none;stroke:#263238;stroke-miterlimit:10;" width="4.147" height="8.115"/>
				
					<rect x="613.281" y="247.781" transform="matrix(-1 -1.224647e-16 1.224647e-16 -1 1230.7086 503.6776)" style="fill:none;stroke:#263238;stroke-miterlimit:10;" width="4.147" height="8.115"/>
				
					<rect x="605.816" y="247.781" transform="matrix(-1 -1.224647e-16 1.224647e-16 -1 1215.7791 503.6776)" style="fill:none;stroke:#263238;stroke-miterlimit:10;" width="4.147" height="8.115"/>
				
					<rect x="598.351" y="247.781" transform="matrix(-1 -1.224647e-16 1.224647e-16 -1 1200.8495 503.6776)" style="fill:none;stroke:#263238;stroke-miterlimit:10;" width="4.147" height="8.115"/>
			</g>
			<line style="fill:none;stroke:#263238;stroke-miterlimit:10;" x1="635.479" y1="104.22" x2="635.479" y2="269.615"/>
			<line style="fill:none;stroke:#263238;stroke-miterlimit:10;" x1="572.073" y1="111.949" x2="572.073" y2="267.296"/>
			<line style="fill:none;stroke:#263238;stroke-miterlimit:10;" x1="563.958" y1="111.949" x2="563.958" y2="267.296"/>
			<line style="fill:none;stroke:#263238;stroke-miterlimit:10;" x1="555.843" y1="111.949" x2="555.843" y2="267.296"/>
			<line style="fill:none;stroke:#263238;stroke-miterlimit:10;" x1="547.728" y1="111.949" x2="547.728" y2="267.296"/>
			<line style="fill:none;stroke:#263238;stroke-miterlimit:10;" x1="539.613" y1="127.406" x2="539.613" y2="267.296"/>
			<line style="fill:none;stroke:#263238;stroke-miterlimit:10;" x1="531.498" y1="127.406" x2="531.498" y2="267.296"/>
			<line style="fill:none;stroke:#263238;stroke-miterlimit:10;" x1="523.383" y1="127.406" x2="523.383" y2="267.296"/>
			
				<rect x="403.587" y="137.84" transform="matrix(-1 -1.224647e-16 1.224647e-16 -1 820.4605 280.3175)" style="fill:none;stroke:#263238;stroke-miterlimit:10;" width="13.286" height="4.637"/>
			
				<rect x="403.587" y="145.955" transform="matrix(-1 -1.224647e-16 1.224647e-16 -1 820.4605 296.5478)" style="fill:none;stroke:#263238;stroke-miterlimit:10;" width="13.286" height="4.637"/>
			
				<rect x="403.587" y="154.07" transform="matrix(-1 -1.224647e-16 1.224647e-16 -1 820.4605 312.7782)" style="fill:none;stroke:#263238;stroke-miterlimit:10;" width="13.286" height="4.637"/>
			
				<rect x="403.587" y="162.186" transform="matrix(-1 -1.224647e-16 1.224647e-16 -1 820.4605 329.0085)" style="fill:none;stroke:#263238;stroke-miterlimit:10;" width="13.286" height="4.637"/>
			
				<rect x="403.587" y="170.301" transform="matrix(-1 -1.224647e-16 1.224647e-16 -1 820.4605 345.2388)" style="fill:none;stroke:#263238;stroke-miterlimit:10;" width="13.286" height="4.637"/>
			
				<rect x="403.587" y="178.416" transform="matrix(-1 -1.224647e-16 1.224647e-16 -1 820.4605 361.4692)" style="fill:none;stroke:#263238;stroke-miterlimit:10;" width="13.286" height="4.637"/>
			
				<rect x="403.587" y="186.531" transform="matrix(-1 -1.224647e-16 1.224647e-16 -1 820.4605 377.6996)" style="fill:none;stroke:#263238;stroke-miterlimit:10;" width="13.286" height="4.637"/>
			
				<rect x="403.587" y="194.646" transform="matrix(-1 -1.224647e-16 1.224647e-16 -1 820.4605 393.9298)" style="fill:none;stroke:#263238;stroke-miterlimit:10;" width="13.286" height="4.637"/>
			
				<rect x="403.587" y="202.762" transform="matrix(-1 -1.224647e-16 1.224647e-16 -1 820.4605 410.1602)" style="fill:none;stroke:#263238;stroke-miterlimit:10;" width="13.286" height="4.637"/>
			
				<rect x="403.587" y="210.877" transform="matrix(-1 -1.224647e-16 1.224647e-16 -1 820.4605 426.3905)" style="fill:none;stroke:#263238;stroke-miterlimit:10;" width="13.286" height="4.637"/>
			
				<rect x="403.587" y="218.992" transform="matrix(-1 -1.224647e-16 1.224647e-16 -1 820.4605 442.6208)" style="fill:none;stroke:#263238;stroke-miterlimit:10;" width="13.286" height="4.637"/>
			
				<rect x="403.587" y="227.107" transform="matrix(-1 -1.224647e-16 1.224647e-16 -1 820.4605 458.8511)" style="fill:none;stroke:#263238;stroke-miterlimit:10;" width="13.286" height="4.637"/>
			
				<rect x="403.587" y="235.222" transform="matrix(-1 -1.224647e-16 1.224647e-16 -1 820.4605 475.0814)" style="fill:none;stroke:#263238;stroke-miterlimit:10;" width="13.286" height="4.637"/>
			
				<rect x="403.587" y="243.337" transform="matrix(-1 -1.224647e-16 1.224647e-16 -1 820.4605 491.3117)" style="fill:none;stroke:#263238;stroke-miterlimit:10;" width="13.286" height="4.637"/>
			
				<rect x="403.587" y="251.452" transform="matrix(-1 -1.224647e-16 1.224647e-16 -1 820.4605 507.542)" style="fill:none;stroke:#263238;stroke-miterlimit:10;" width="13.286" height="4.637"/>
			
				<rect x="403.587" y="259.568" transform="matrix(-1 -1.224647e-16 1.224647e-16 -1 820.4605 523.7724)" style="fill:none;stroke:#263238;stroke-miterlimit:10;" width="13.286" height="4.637"/>
			
				<rect x="403.587" y="267.683" transform="matrix(-1 -1.224647e-16 1.224647e-16 -1 820.4605 540.0028)" style="fill:none;stroke:#263238;stroke-miterlimit:10;" width="13.286" height="4.637"/>
			
				<rect x="421.261" y="137.84" transform="matrix(-1 -1.224647e-16 1.224647e-16 -1 855.8085 280.3175)" style="fill:none;stroke:#263238;stroke-miterlimit:10;" width="13.286" height="4.637"/>
			
				<rect x="421.261" y="145.955" transform="matrix(-1 -1.224647e-16 1.224647e-16 -1 855.8085 296.5478)" style="fill:none;stroke:#263238;stroke-miterlimit:10;" width="13.286" height="4.637"/>
			
				<rect x="421.261" y="154.07" transform="matrix(-1 -1.224647e-16 1.224647e-16 -1 855.8085 312.7782)" style="fill:none;stroke:#263238;stroke-miterlimit:10;" width="13.286" height="4.637"/>
			
				<rect x="421.261" y="162.186" transform="matrix(-1 -1.224647e-16 1.224647e-16 -1 855.8085 329.0085)" style="fill:none;stroke:#263238;stroke-miterlimit:10;" width="13.286" height="4.637"/>
			
				<rect x="421.261" y="170.301" transform="matrix(-1 -1.224647e-16 1.224647e-16 -1 855.8085 345.2388)" style="fill:none;stroke:#263238;stroke-miterlimit:10;" width="13.286" height="4.637"/>
			
				<rect x="421.261" y="178.416" transform="matrix(-1 -1.224647e-16 1.224647e-16 -1 855.8085 361.4692)" style="fill:none;stroke:#263238;stroke-miterlimit:10;" width="13.286" height="4.637"/>
			
				<rect x="421.261" y="186.531" transform="matrix(-1 -1.224647e-16 1.224647e-16 -1 855.8085 377.6996)" style="fill:none;stroke:#263238;stroke-miterlimit:10;" width="13.286" height="4.637"/>
			
				<rect x="421.261" y="194.646" transform="matrix(-1 -1.224647e-16 1.224647e-16 -1 855.8085 393.9298)" style="fill:none;stroke:#263238;stroke-miterlimit:10;" width="13.286" height="4.637"/>
			
				<rect x="421.261" y="202.762" transform="matrix(-1 -1.224647e-16 1.224647e-16 -1 855.8085 410.1602)" style="fill:none;stroke:#263238;stroke-miterlimit:10;" width="13.286" height="4.637"/>
			
				<rect x="421.261" y="210.877" transform="matrix(-1 -1.224647e-16 1.224647e-16 -1 855.8085 426.3905)" style="fill:none;stroke:#263238;stroke-miterlimit:10;" width="13.286" height="4.637"/>
			
				<rect x="421.261" y="218.992" transform="matrix(-1 -1.224647e-16 1.224647e-16 -1 855.8085 442.6208)" style="fill:none;stroke:#263238;stroke-miterlimit:10;" width="13.286" height="4.637"/>
			
				<rect x="421.261" y="227.107" transform="matrix(-1 -1.224647e-16 1.224647e-16 -1 855.8085 458.8511)" style="fill:none;stroke:#263238;stroke-miterlimit:10;" width="13.286" height="4.637"/>
			
				<rect x="421.261" y="235.222" transform="matrix(-1 -1.224647e-16 1.224647e-16 -1 855.8085 475.0814)" style="fill:none;stroke:#263238;stroke-miterlimit:10;" width="13.286" height="4.637"/>
			
				<rect x="421.261" y="243.337" transform="matrix(-1 -1.224647e-16 1.224647e-16 -1 855.8085 491.3117)" style="fill:none;stroke:#263238;stroke-miterlimit:10;" width="13.286" height="4.637"/>
			
				<rect x="421.261" y="251.452" transform="matrix(-1 -1.224647e-16 1.224647e-16 -1 855.8085 507.542)" style="fill:none;stroke:#263238;stroke-miterlimit:10;" width="13.286" height="4.637"/>
			
				<rect x="421.261" y="259.568" transform="matrix(-1 -1.224647e-16 1.224647e-16 -1 855.8085 523.7724)" style="fill:none;stroke:#263238;stroke-miterlimit:10;" width="13.286" height="4.637"/>
			
				<rect x="421.261" y="267.683" transform="matrix(-1 -1.224647e-16 1.224647e-16 -1 855.8085 540.0028)" style="fill:none;stroke:#263238;stroke-miterlimit:10;" width="13.286" height="4.637"/>
			
				<rect x="438.935" y="137.84" transform="matrix(-1 -1.224647e-16 1.224647e-16 -1 891.1567 280.3175)" style="fill:none;stroke:#263238;stroke-miterlimit:10;" width="13.286" height="4.637"/>
			
				<rect x="438.935" y="145.955" transform="matrix(-1 -1.224647e-16 1.224647e-16 -1 891.1567 296.5478)" style="fill:none;stroke:#263238;stroke-miterlimit:10;" width="13.286" height="4.637"/>
			
				<rect x="438.935" y="154.07" transform="matrix(-1 -1.224647e-16 1.224647e-16 -1 891.1567 312.7782)" style="fill:none;stroke:#263238;stroke-miterlimit:10;" width="13.286" height="4.637"/>
			
				<rect x="438.935" y="162.186" transform="matrix(-1 -1.224647e-16 1.224647e-16 -1 891.1567 329.0085)" style="fill:none;stroke:#263238;stroke-miterlimit:10;" width="13.286" height="4.637"/>
			
				<rect x="438.935" y="170.301" transform="matrix(-1 -1.224647e-16 1.224647e-16 -1 891.1567 345.2388)" style="fill:none;stroke:#263238;stroke-miterlimit:10;" width="13.286" height="4.637"/>
			
				<rect x="438.935" y="178.416" transform="matrix(-1 -1.224647e-16 1.224647e-16 -1 891.1567 361.4692)" style="fill:none;stroke:#263238;stroke-miterlimit:10;" width="13.286" height="4.637"/>
			
				<rect x="438.935" y="186.531" transform="matrix(-1 -1.224647e-16 1.224647e-16 -1 891.1567 377.6996)" style="fill:none;stroke:#263238;stroke-miterlimit:10;" width="13.286" height="4.637"/>
			
				<rect x="438.935" y="194.646" transform="matrix(-1 -1.224647e-16 1.224647e-16 -1 891.1567 393.9298)" style="fill:none;stroke:#263238;stroke-miterlimit:10;" width="13.286" height="4.637"/>
			
				<rect x="438.935" y="202.762" transform="matrix(-1 -1.224647e-16 1.224647e-16 -1 891.1567 410.1602)" style="fill:none;stroke:#263238;stroke-miterlimit:10;" width="13.286" height="4.637"/>
			
				<rect x="438.935" y="210.877" transform="matrix(-1 -1.224647e-16 1.224647e-16 -1 891.1567 426.3905)" style="fill:none;stroke:#263238;stroke-miterlimit:10;" width="13.286" height="4.637"/>
			
				<rect x="438.935" y="218.992" transform="matrix(-1 -1.224647e-16 1.224647e-16 -1 891.1567 442.6208)" style="fill:none;stroke:#263238;stroke-miterlimit:10;" width="13.286" height="4.637"/>
			
				<rect x="438.935" y="227.107" transform="matrix(-1 -1.224647e-16 1.224647e-16 -1 891.1567 458.8511)" style="fill:none;stroke:#263238;stroke-miterlimit:10;" width="13.286" height="4.637"/>
			
				<rect x="438.935" y="235.222" transform="matrix(-1 -1.224647e-16 1.224647e-16 -1 891.1567 475.0814)" style="fill:none;stroke:#263238;stroke-miterlimit:10;" width="13.286" height="4.637"/>
			
				<rect x="438.935" y="243.337" transform="matrix(-1 -1.224647e-16 1.224647e-16 -1 891.1567 491.3117)" style="fill:none;stroke:#263238;stroke-miterlimit:10;" width="13.286" height="4.637"/>
			
				<rect x="438.935" y="251.452" transform="matrix(-1 -1.224647e-16 1.224647e-16 -1 891.1567 507.542)" style="fill:none;stroke:#263238;stroke-miterlimit:10;" width="13.286" height="4.637"/>
			
				<rect x="438.935" y="259.568" transform="matrix(-1 -1.224647e-16 1.224647e-16 -1 891.1567 523.7724)" style="fill:none;stroke:#263238;stroke-miterlimit:10;" width="13.286" height="4.637"/>
			
				<rect x="438.935" y="267.683" transform="matrix(-1 -1.224647e-16 1.224647e-16 -1 891.1567 540.0028)" style="fill:none;stroke:#263238;stroke-miterlimit:10;" width="13.286" height="4.637"/>
			
				<rect x="473.146" y="228.266" transform="matrix(-1 -1.224647e-16 1.224647e-16 -1 970.6371 469.2848)" style="fill:none;stroke:#263238;stroke-miterlimit:10;" width="24.345" height="12.752"/>
			
				<rect x="478.942" y="205.853" transform="matrix(-1 -1.224647e-16 1.224647e-16 -1 970.6372 434.1191)" style="fill:none;stroke:#263238;stroke-miterlimit:10;" width="12.752" height="22.413"/>
			<line style="fill:none;stroke:#263238;stroke-miterlimit:10;" x1="594.227" y1="158.592" x2="594.227" y2="269.308"/>
			<line style="fill:none;stroke:#263238;stroke-miterlimit:10;" x1="454.393" y1="146.457" x2="513.509" y2="146.457"/>
			<line style="fill:none;stroke:#263238;stroke-miterlimit:10;" x1="454.393" y1="153.062" x2="513.509" y2="153.062"/>
			<g>
				
					<rect x="501.85" y="158.016" transform="matrix(-1 -1.224647e-16 1.224647e-16 -1 1012.7174 322.6372)" style="fill:none;stroke:#263238;stroke-miterlimit:10;" width="9.017" height="6.605"/>
				
					<rect x="490.729" y="158.016" transform="matrix(-1 -1.224647e-16 1.224647e-16 -1 990.475 322.6372)" style="fill:none;stroke:#263238;stroke-miterlimit:10;" width="9.017" height="6.605"/>
				
					<rect x="479.608" y="158.016" transform="matrix(-1 -1.224647e-16 1.224647e-16 -1 968.2327 322.6372)" style="fill:none;stroke:#263238;stroke-miterlimit:10;" width="9.017" height="6.605"/>
				
					<rect x="468.487" y="158.016" transform="matrix(-1 -1.224647e-16 1.224647e-16 -1 945.9904 322.6372)" style="fill:none;stroke:#263238;stroke-miterlimit:10;" width="9.017" height="6.605"/>
				
					<rect x="457.365" y="158.016" transform="matrix(-1 -1.224647e-16 1.224647e-16 -1 923.748 322.6372)" style="fill:none;stroke:#263238;stroke-miterlimit:10;" width="9.017" height="6.605"/>
			</g>
			<g>
				
					<rect x="501.85" y="168.254" transform="matrix(-1 -1.224647e-16 1.224647e-16 -1 1012.7174 343.1132)" style="fill:none;stroke:#263238;stroke-miterlimit:10;" width="9.017" height="6.605"/>
				
					<rect x="490.729" y="168.254" transform="matrix(-1 -1.224647e-16 1.224647e-16 -1 990.475 343.1132)" style="fill:none;stroke:#263238;stroke-miterlimit:10;" width="9.017" height="6.605"/>
				
					<rect x="479.608" y="168.254" transform="matrix(-1 -1.224647e-16 1.224647e-16 -1 968.2327 343.1132)" style="fill:none;stroke:#263238;stroke-miterlimit:10;" width="9.017" height="6.605"/>
				
					<rect x="468.487" y="168.254" transform="matrix(-1 -1.224647e-16 1.224647e-16 -1 945.9904 343.1132)" style="fill:none;stroke:#263238;stroke-miterlimit:10;" width="9.017" height="6.605"/>
				
					<rect x="457.365" y="168.254" transform="matrix(-1 -1.224647e-16 1.224647e-16 -1 923.748 343.1132)" style="fill:none;stroke:#263238;stroke-miterlimit:10;" width="9.017" height="6.605"/>
			</g>
			<g>
				
					<rect x="501.85" y="178.492" transform="matrix(-1 -1.224647e-16 1.224647e-16 -1 1012.7174 363.5892)" style="fill:none;stroke:#263238;stroke-miterlimit:10;" width="9.017" height="6.605"/>
				
					<rect x="490.729" y="178.492" transform="matrix(-1 -1.224647e-16 1.224647e-16 -1 990.475 363.5892)" style="fill:none;stroke:#263238;stroke-miterlimit:10;" width="9.017" height="6.605"/>
				
					<rect x="479.608" y="178.492" transform="matrix(-1 -1.224647e-16 1.224647e-16 -1 968.2327 363.5892)" style="fill:none;stroke:#263238;stroke-miterlimit:10;" width="9.017" height="6.605"/>
				
					<rect x="468.487" y="178.492" transform="matrix(-1 -1.224647e-16 1.224647e-16 -1 945.9904 363.5892)" style="fill:none;stroke:#263238;stroke-miterlimit:10;" width="9.017" height="6.605"/>
				
					<rect x="457.365" y="178.492" transform="matrix(-1 -1.224647e-16 1.224647e-16 -1 923.748 363.5892)" style="fill:none;stroke:#263238;stroke-miterlimit:10;" width="9.017" height="6.605"/>
			</g>
			<g>
				
					<rect x="501.85" y="196.986" transform="matrix(-1 -1.224647e-16 1.224647e-16 -1 1012.7174 400.5781)" style="fill:none;stroke:#263238;stroke-miterlimit:10;" width="9.017" height="6.605"/>
				
					<rect x="490.729" y="196.986" transform="matrix(-1 -1.224647e-16 1.224647e-16 -1 990.475 400.5781)" style="fill:none;stroke:#263238;stroke-miterlimit:10;" width="9.017" height="6.605"/>
				
					<rect x="479.608" y="196.986" transform="matrix(-1 -1.224647e-16 1.224647e-16 -1 968.2327 400.5781)" style="fill:none;stroke:#263238;stroke-miterlimit:10;" width="9.017" height="6.605"/>
				
					<rect x="468.487" y="196.986" transform="matrix(-1 -1.224647e-16 1.224647e-16 -1 945.9904 400.5781)" style="fill:none;stroke:#263238;stroke-miterlimit:10;" width="9.017" height="6.605"/>
				
					<rect x="457.365" y="196.986" transform="matrix(-1 -1.224647e-16 1.224647e-16 -1 923.748 400.5781)" style="fill:none;stroke:#263238;stroke-miterlimit:10;" width="9.017" height="6.605"/>
			</g>
			<line style="fill:none;stroke:#263238;stroke-miterlimit:10;" x1="517.118" y1="134.232" x2="576.492" y2="134.232"/>
			<line style="fill:none;stroke:#263238;stroke-miterlimit:10;" x1="517.118" y1="145.831" x2="576.492" y2="145.831"/>
			<line style="fill:none;stroke:#263238;stroke-miterlimit:10;" x1="517.118" y1="157.43" x2="576.492" y2="157.43"/>
			<line style="fill:none;stroke:#263238;stroke-miterlimit:10;" x1="517.118" y1="169.028" x2="576.492" y2="169.028"/>
			<line style="fill:none;stroke:#263238;stroke-miterlimit:10;" x1="517.118" y1="180.627" x2="576.492" y2="180.627"/>
			<line style="fill:none;stroke:#263238;stroke-miterlimit:10;" x1="517.118" y1="192.225" x2="576.492" y2="192.225"/>
			<line style="fill:none;stroke:#263238;stroke-miterlimit:10;" x1="517.118" y1="203.824" x2="576.492" y2="203.824"/>
			<line style="fill:none;stroke:#263238;stroke-miterlimit:10;" x1="517.118" y1="215.423" x2="576.492" y2="215.423"/>
			<line style="fill:none;stroke:#263238;stroke-miterlimit:10;" x1="517.118" y1="227.021" x2="576.492" y2="227.021"/>
			<line style="fill:none;stroke:#263238;stroke-miterlimit:10;" x1="517.118" y1="238.62" x2="576.492" y2="238.62"/>
			<line style="fill:none;stroke:#263238;stroke-miterlimit:10;" x1="517.118" y1="250.219" x2="576.492" y2="250.219"/>
			<line style="fill:none;stroke:#263238;stroke-miterlimit:10;" x1="517.118" y1="261.817" x2="576.492" y2="261.817"/>
			<line style="fill:none;stroke:#263238;stroke-miterlimit:10;" x1="547.219" y1="123.186" x2="576.492" y2="123.186"/>
		</g>
	</g>
</g>
<g id="Car">
	<g>
		<path style="fill:#263238;stroke:#263238;stroke-linecap:round;stroke-linejoin:round;stroke-miterlimit:10;" d="M310.574,438.273
			l369.399-89.868l10.328-28.16c0,0,0.473-18.538-7.829-35.836c-8.302-17.299-39.371-12.397-53.594,2.188
			c-14.223,14.584-25.161,26.252-25.161,26.252l-168.739,31.545c0,0-22.315-27.899-48.567-27.899
			c-26.252,0-47.399,35.002-56.879,63.441C320.054,408.375,310.574,438.273,310.574,438.273z"/>
		<g>
			<path style="fill:#263238;stroke:#263238;stroke-linecap:round;stroke-linejoin:round;stroke-miterlimit:10;" d="
				M628.878,286.596c-17.832,0-33.857,26.119-33.857,60.257s14.455,61.812,32.287,61.812l34.544,1.555V286.596H628.878z"/>
			<g>
				
					<ellipse style="fill:#5E5E5E;stroke:#263238;stroke-linecap:round;stroke-linejoin:round;stroke-miterlimit:10;" cx="661.853" cy="348.409" rx="32.287" ry="61.812"/>
				<g>
					
						<ellipse style="fill:#263238;stroke:#263238;stroke-linecap:round;stroke-linejoin:round;stroke-miterlimit:10;" cx="664.096" cy="350.088" rx="27.028" ry="54.359"/>
					<path style="fill:#999999;stroke:#263238;stroke-linecap:round;stroke-linejoin:round;stroke-miterlimit:10;" d="
						M658.14,297.069c-1.06,0.48-2.098,1.079-3.107,1.801l4.529,6.901c0,0,9.156,7.188,8.774,10.906
						c-0.381,3.718-3.052,7.932-4.196,9.419c-1.144,1.487-7.439,6.445-7.439,6.445l-1.717,6.941c0,0,8.011-3.966,9.537-7.436
						c1.526-3.47,9.156-23.548,8.774-27.018c-0.382-3.47-1.335-4.957-1.335-4.957l-2.757-3.358c-0.296-0.114-0.592-0.226-0.891-0.32
						L658.14,297.069z M670.817,309.489l-8.642-9.033c-1.337,0.457-2.421,0.853-2.421,0.853l2.289-0.992l0.132,0.138
						c1.841-0.63,4.164-1.378,4.827-1.378c1.145,0,3.052,1.735,3.815,4.957C671.58,307.258,670.817,309.489,670.817,309.489z"/>
					<path style="fill:#FFFFFF;stroke:#263238;stroke-linecap:round;stroke-linejoin:round;stroke-miterlimit:10;" d="
						M652.315,395.997c0,0,7.057-2.727,8.011-3.47c0.954-0.744,0.191,3.718-1.144,5.701c-1.335,1.983-2.48,2.727-2.48,2.727
						L652.315,395.997z"/>
					<path style="fill:#999999;stroke:#263238;stroke-linecap:round;stroke-linejoin:round;stroke-miterlimit:10;" d="
						M682.985,311.222l-0.151,0.498c0,0-3.624-1.735-3.624-0.248c0,1.487-2.48,5.205-3.052,5.701
						c-0.572,0.496-6.104,8.428-6.104,8.428l-8.774,13.881l21.936-20.574c0,0-0.191-3.47,1.717,5.701
						c1.907,9.171,1.526,14.377,1.526,15.12c0,0.744-10.3,4.957-9.156,5.949c1.145,0.991,0.954,2.974,2.671,2.727
						c1.717-0.248,9.346-1.983,9.346-1.983l-3.433,9.667V366.5c0,0-10.491-8.676-16.404-10.163
						c-5.913-1.487-12.017-0.248-12.017-0.248l1.907,11.898c0,0-5.15-7.932-6.104-8.923c-0.954-0.991-2.48,0.248-2.48,0.248
						l-2.48,2.974c0,0-0.954,10.163-2.48,11.898c-0.78,0.887-2.106,1.642-3.218,2.171c-0.975-3.231-2.505-9.855-2.505-9.855
						c-0.763-3.718-0.381-5.701-0.381-5.701l6.295,1.735c0,0,4.578-6.197,4.769-6.941c0.191-0.744,0.191-5.205-0.381-7.436
						c-0.572-2.231-2.289-3.47-2.289-3.47l2.861-7.188l-1.335-0.744l-3.243,8.923l0.191,9.171l-7.439-2.727
						c-0.191-14.377,2.67-24.044,2.67-24.044l5.15-0.744c0,0,1.907-0.248,2.48,0.248c0.572,0.496,3.815,10.411,3.815,10.411
						l0.763-2.479c0,0-2.289-8.676-4.196-14.625s-4.769-3.966-4.769-3.966c1.717-5.205,5.532-10.411,5.532-10.411l3.433,5.453
						l5.15-2.975l-0.954-3.966l-3.194-6.157c-10.469,7.494-17.965,27.591-17.965,51.218c0,9.867,1.319,19.105,3.604,27.082
						l-0.005,0.009c0.031,0.109,0.065,0.215,0.096,0.323c0.03,0.103,0.056,0.211,0.086,0.314l0.007,0
						c4.711,15.939,13.35,26.632,23.239,26.632c14.927,0,27.028-24.338,27.028-54.359
						C691.124,334.853,688.004,321.091,682.985,311.222z M649.263,391.783c-0.763-0.991-4.196-7.932-4.196-7.932
						s4.387-4.958,5.532-6.693c1.144-1.735,1.526-13.385,1.526-13.385s6.676,11.898,7.821,15.864
						c1.144,3.966,0.381,5.453-0.763,7.188C658.037,388.561,650.026,392.775,649.263,391.783z M686.458,376.167
						c0,0-3.624-6.693-5.722-5.453c-2.098,1.239-2.67,2.974-4.578,4.71c-1.908,1.735-6.867,0.248-6.867,0.248
						s5.15,14.872,5.913,17.103c0.763,2.231-1.144,5.205-2.289,6.197c-1.144,0.992-2.67,0.248-4.006,0.248
						c-1.335,0-4.196,0.744-4.196,0.744l-4.387,1.487c0,0,3.243-6.94,3.624-9.171c0.381-2.231,0.381-10.163,0.381-10.163
						l5.341,12.642l3.624-1.735c0,0-10.109-25.283-10.682-26.027c-0.572-0.744-1.526-4.957-1.526-6.197
						c0-1.239-0.954-3.222-0.954-3.222s7.058,0.248,12.017,3.966c4.959,3.718,13.352,8.18,13.924,9.171
						C686.649,371.705,686.458,376.167,686.458,376.167z"/>
					<path style="fill:#999999;stroke:#263238;stroke-linecap:round;stroke-linejoin:round;stroke-miterlimit:10;" d="
						M672.915,348.405l-10.3-5.453l-4.196,1.983c0,0,4.959,2.975,8.393,4.214C670.245,350.388,672.915,348.405,672.915,348.405z"/>
				</g>
			</g>
		</g>
		<g>
			<path style="fill:#263238;stroke:#263238;stroke-linecap:round;stroke-linejoin:round;stroke-miterlimit:10;" d="
				M342.109,330.681c-23.805,0-43.104,28.43-43.104,63.501c0,35.07,19.298,63.501,43.104,63.501h44.021V330.681H342.109z"/>
			<g>
				
					<ellipse style="fill:#5E5E5E;stroke:#263238;stroke-linecap:round;stroke-linejoin:round;stroke-miterlimit:10;" cx="386.13" cy="394.182" rx="43.104" ry="63.501"/>
				<g>
					
						<ellipse style="fill:#263238;stroke:#263238;stroke-linecap:round;stroke-linejoin:round;stroke-miterlimit:10;" cx="389.125" cy="395.907" rx="36.082" ry="55.844"/>
					<path style="fill:#999999;stroke:#263238;stroke-linecap:round;stroke-linejoin:round;stroke-miterlimit:10;" d="
						M381.174,341.44c-1.415,0.493-2.8,1.108-4.147,1.85l6.047,7.089c0,0,12.223,7.385,11.714,11.204
						c-0.509,3.82-4.074,8.149-5.602,9.677c-1.528,1.528-9.931,6.621-9.931,6.621l-2.292,7.13c0,0,10.695-4.074,12.732-7.639
						c2.037-3.565,12.223-24.191,11.714-27.756c-0.509-3.565-1.783-5.093-1.783-5.093l-3.68-3.45
						c-0.395-0.117-0.79-0.232-1.189-0.329L381.174,341.44z M398.097,354.199l-11.537-9.28c-1.785,0.47-3.232,0.877-3.232,0.877
						l3.056-1.019l0.176,0.142c2.457-0.647,5.559-1.415,6.444-1.415c1.528,0,4.074,1.783,5.093,5.093
						C399.116,351.907,398.097,354.199,398.097,354.199z"/>
					<path style="fill:#FFFFFF;stroke:#263238;stroke-linecap:round;stroke-linejoin:round;stroke-miterlimit:10;" d="
						M373.397,443.07c0,0,9.422-2.801,10.695-3.565c1.273-0.764,0.255,3.82-1.528,5.857c-1.783,2.037-3.31,2.801-3.31,2.801
						L373.397,443.07z"/>
					<path style="fill:#999999;stroke:#263238;stroke-linecap:round;stroke-linejoin:round;stroke-miterlimit:10;" d="
						M414.341,355.979l-0.201,0.512c0,0-4.838-1.783-4.838-0.255c0,1.528-3.31,5.348-4.074,5.857
						c-0.764,0.509-8.149,8.658-8.149,8.658l-11.714,14.26l29.284-21.136c0,0-0.255-3.565,2.292,5.857
						c2.546,9.422,2.037,14.769,2.037,15.533c0,0.764-13.751,5.093-12.223,6.112c1.528,1.018,1.273,3.056,3.565,2.801
						c2.292-0.255,12.478-2.037,12.478-2.037l-4.584,9.931v10.695c0,0-14.006-8.913-21.9-10.44
						c-7.894-1.528-16.043-0.255-16.043-0.255l2.547,12.223c0,0-6.876-8.149-8.149-9.167c-1.273-1.019-3.31,0.255-3.31,0.255
						l-3.31,3.056c0,0-1.273,10.44-3.31,12.223c-1.041,0.911-2.811,1.687-4.296,2.23c-1.302-3.32-3.343-10.124-3.343-10.124
						c-1.019-3.82-0.509-5.857-0.509-5.857l8.403,1.782c0,0,6.111-6.366,6.366-7.13c0.255-0.764,0.255-5.348-0.509-7.639
						c-0.764-2.292-3.056-3.565-3.056-3.565l3.82-7.385l-1.783-0.764l-4.329,9.167l0.255,9.422l-9.931-2.801
						c-0.255-14.77,3.565-24.701,3.565-24.701l6.875-0.764c0,0,2.547-0.255,3.31,0.255c0.764,0.509,5.093,10.695,5.093,10.695
						l1.019-2.546c0,0-3.056-8.913-5.602-15.024c-2.547-6.112-6.366-4.074-6.366-4.074c2.292-5.348,7.385-10.695,7.385-10.695
						l4.584,5.602l6.875-3.056l-1.273-4.074l-4.264-6.325c-13.975,7.699-23.983,28.345-23.983,52.617
						c0,10.137,1.761,19.627,4.812,27.822l-0.007,0.009c0.042,0.112,0.086,0.221,0.128,0.332c0.04,0.106,0.074,0.217,0.115,0.322
						l0.01,0c6.29,16.374,17.823,27.359,31.024,27.359c19.928,0,36.082-25.002,36.082-55.844
						C425.208,380.257,421.043,366.118,414.341,355.979z M369.322,438.741c-1.018-1.019-5.602-8.149-5.602-8.149
						s5.857-5.093,7.385-6.876c1.528-1.782,2.037-13.751,2.037-13.751s8.913,12.223,10.44,16.297
						c1.528,4.074,0.509,5.602-1.019,7.385C381.036,435.431,370.341,439.76,369.322,438.741z M418.978,422.699
						c0,0-4.838-6.875-7.639-5.602c-2.801,1.273-3.565,3.056-6.112,4.838c-2.546,1.782-9.167,0.255-9.167,0.255
						s6.876,15.279,7.894,17.571c1.019,2.292-1.528,5.348-3.056,6.366c-1.528,1.019-3.565,0.255-5.348,0.255
						c-1.783,0-5.602,0.764-5.602,0.764l-5.857,1.528c0,0,4.329-7.13,4.838-9.422c0.509-2.292,0.509-10.44,0.509-10.44l7.13,12.987
						l4.838-1.783c0,0-13.496-25.974-14.26-26.738c-0.764-0.764-2.037-5.093-2.037-6.366c0-1.273-1.273-3.31-1.273-3.31
						s9.422,0.255,16.043,4.074c6.621,3.82,17.825,8.403,18.589,9.422C419.233,418.115,418.978,422.699,418.978,422.699z"/>
					<path style="fill:#999999;stroke:#263238;stroke-linecap:round;stroke-linejoin:round;stroke-miterlimit:10;" d="
						M400.898,394.178l-13.751-5.602l-5.602,2.037c0,0,6.621,3.056,11.204,4.329C397.333,396.216,400.898,394.178,400.898,394.178z"
						/>
				</g>
			</g>
		</g>
		<path style="fill:#92E3A9;" d="M318.382,217.97c-5.385,0.974-10.604,2.692-15.536,5.063c-3.427,1.648-8.597,3.962-16.276,7.072
			c-18.74,7.591-73.061,43.647-77.805,45.544c-4.744,1.898-11.623,3.084-12.572,3.321c-0.949,0.237-30.6,1.186-46.019,4.033
			c-15.419,2.846-32.498,12.098-41.275,17.079c-8.777,4.981-21.586,15.419-23.247,16.605c-1.66,1.186-11.623,3.321-13.995,8.065
			c-2.372,4.744-2.609,12.098-2.135,15.181c0.474,3.084,0,8.302,0,8.302s-11.861,58.591-12.572,61.675
			c-0.712,3.084-5.693,13.995-3.795,16.367c1.898,2.372,7.828,7.353,15.182,8.539c7.353,1.186,29.651-0.474,29.651-0.474
			l71.637,9.014c0,0,21.112,11.386,30.6,11.861c9.488,0.474,74.484,2.846,78.991,1.898c4.507-0.949,59.065-8.065,59.065-8.065
			s-4.27-34.395-0.712-53.609c3.558-19.214,14.944-47.442,25.856-57.642c10.912-10.2,23.247-17.316,40.089-11.386
			c16.842,5.93,26.568,24.907,26.33,50.526c-0.237,25.619-9.963,60.963-9.963,60.963l45.07-9.251l124.772-28.228
			c0,0,44.121-4.744,44.121-5.456c0-0.712-5.93-26.093-6.879-44.833c-0.949-18.74,12.335-44.833,21.823-56.219
			c9.488-11.386,22.535-8.777,30.363-2.372c7.828,6.405,11.149,28.703,11.149,28.703l2.609,4.27c0,0-0.712-20.163-4.27-32.972
			c-3.558-12.809-6.642-23.958-14.707-32.26c-8.065-8.302-17.791-10.2-24.67-10.437c-6.879-0.237-21.586-3.321-23.484-4.033
			c-1.898-0.712-98.917-25.382-98.917-25.382s-46.493-9.963-103.898-9.488C369.129,210.387,362.444,209.998,318.382,217.97z"/>
		<path style="fill:#5E5E5E;stroke:#263238;stroke-linecap:round;stroke-linejoin:round;stroke-miterlimit:10;" d="M290.04,451.249
			c1.734-2.6,10.402-30.339,10.402-30.339l-18.637,2.6L92.84,414.409l-34.249-12.388c-0.882,4.301-1.495,7.258-1.64,7.889
			c-0.712,3.084-5.693,13.995-3.795,16.368c1.898,2.372,7.828,7.353,15.181,8.539c7.353,1.186,29.651-0.474,29.651-0.474
			l71.637,9.014c0,0,21.112,11.386,30.6,11.861c9.221,0.461,70.863,2.714,78.463,1.97
			C284.148,454.836,289.27,452.403,290.04,451.249z"/>
		<path style="fill:#263238;stroke:#263238;stroke-linecap:round;stroke-linejoin:round;stroke-miterlimit:10;" d="M80.998,410.126
			l-19.223-3.598l-3.885,6.798l-2.266,9.064c0,0,0,0,3.237,1.618c3.237,1.619,4.532,5.18,7.445,7.122
			c2.913,1.942,8.74,3.237,15.538,2.266c6.798-0.971,15.862-1.619,15.862-1.619l69.923,8.74l6.474-1.295l8.74-10.035l-75.136-14.063
			l-14.869-0.716L80.998,410.126z"/>
		<path style="fill:#263238;stroke:#263238;stroke-linecap:round;stroke-linejoin:round;stroke-miterlimit:10;" d="M498.664,214.801
			c-18.947-2.53-45.845-5.106-75.698-4.859c-53.837,0.445-60.521,0.055-104.583,8.028c-5.385,0.974-10.604,2.692-15.536,5.063
			c-3.427,1.648-8.597,3.962-16.276,7.072c-16.522,6.693-60.697,35.508-74.173,43.535c-0.902,0.691-5.686,4.283-9.325,5.567
			c-4.033,1.423-5.93,2.609-4.27,3.321c1.66,0.712,137.582,9.251,142.563,9.251c4.981,0,62.861-0.712,62.861-0.712
			s4.27,0.237,8.777-3.321c4.507-3.558,27.991-41.275,38.191-53.372c10.2-12.098,29.651-17.554,43.884-19.214
			C496.344,215.013,497.524,214.9,498.664,214.801z"/>
		<path style="fill:#263238;stroke:#696969;stroke-linecap:round;stroke-linejoin:round;stroke-miterlimit:10;" d="M306.732,222.277
			c0,0,18.977-5.219,71.637-3.084c52.661,2.135,78.991,4.744,79.228,5.693c0.237,0.949-21.349,25.619-32.498,40.088
			c-11.149,14.47-14.944,20.875-18.028,22.535c-3.084,1.66-56.456,1.66-63.098,1.66s-128.805-6.879-130.703-7.591
			c-1.898-0.712-3.321-2.135-1.66-4.27c1.66-2.135,62.623-39.851,74.958-45.781C298.905,225.598,306.732,222.277,306.732,222.277z"
			/>
		<path style="fill:#5E5E5E;stroke:#263238;stroke-linecap:round;stroke-linejoin:round;stroke-miterlimit:10;" d="M625.78,244.812
			c-0.886-0.332-22.494-5.884-45.288-11.71c-7.559,0.003-19.963-0.48-29.908-3.234c-15.419-4.27-45.782-10.912-67.131-4.744
			S445.5,258.096,445.5,258.096l-20.163,33.209c0,0,21.586,4.27,54.796-0.949c33.21-5.219,97.731-23.009,109.117-29.177
			c11.386-6.167,12.335-13.047,12.335-13.047s31.331-0.234,33.858-1.167C630.758,246.089,626.715,245.163,625.78,244.812z"/>
		<path style="fill:#263238;stroke:#263238;stroke-linecap:round;stroke-linejoin:round;stroke-miterlimit:10;" d="M581.659,253.589
			c0,0,2.135,0.237,0.474-2.846c-1.661-3.084-18.502-15.419-47.917-19.688c-29.414-4.27-43.409-4.27-54.321,0.474
			c-10.912,4.744-29.888,27.516-29.888,27.516l-19.451,30.6c0,0,26.33,1.186,52.661-2.609c26.33-3.795,83.498-21.823,90.614-26.093
			C580.947,256.673,581.659,253.589,581.659,253.589z"/>
		<path style="fill:#5E5E5E;stroke:#263238;stroke-linecap:round;stroke-linejoin:round;stroke-miterlimit:10;" d="M440.563,273.902
			l-10.007,15.742c0,0,5.664,0.254,14.358,0.15L440.563,273.902z"/>
		<path style="fill:none;stroke:#263238;stroke-linecap:round;stroke-linejoin:round;stroke-miterlimit:10;" d="M557.226,234.85
			c0,0,23.958,4.981,42.698,13.284"/>
		<path style="fill:#263238;stroke:#263238;stroke-linecap:round;stroke-linejoin:round;stroke-miterlimit:10;" d="M682.154,271.805
			c-2.085-4.658-4.67-8.867-8.221-12.523c-0.475-0.489-0.957-0.952-1.443-1.398c-3.463,1.381-8.757,3.813-8.757,4.481
			c0,0.949,4.27,1.898,10.437,4.744C677.306,268.557,680.131,270.37,682.154,271.805z"/>
		<path style="fill:#263238;stroke:#263238;stroke-linecap:round;stroke-linejoin:round;stroke-miterlimit:10;" d="M460.967,303.127
			c0,0-4.038,1.652-4.038,3.671s0,2.57,2.019,2.937c2.019,0.367,15.235-0.184,17.805-0.734c2.57-0.551,4.589-2.386,4.038-4.038
			c-0.551-1.652-0.367-2.386-2.019-3.12c-1.652-0.734-6.057,0-10.095,0.367C464.638,302.576,460.967,303.127,460.967,303.127z"/>
		<path style="fill:#263238;" d="M158.181,312.16c0,0-15.089,3.946-25.767,14.16s-13.464,19.499-7.66,20.892
			c5.803,1.393,34.124,5.339,43.177,0.696c9.053-4.643,30.642-19.035,40.391-22.517c9.75-3.482,14.16-6.732,12.535-7.893
			C219.232,316.339,170.484,310.535,158.181,312.16z"/>
		<path style="fill:#A6A6A6;stroke:#263238;stroke-linecap:round;stroke-linejoin:round;stroke-miterlimit:10;" d="M71.657,324.752
			c-2.372,4.744-2.609,12.098-2.135,15.181c0.474,3.084,0,8.302,0,8.302s-9.577,47.31-12.035,59.138
			c2.116,5.62,10.076,12.034,12.714,13.657c3.018,1.857,70.105,14.857,112.353,14.16c42.248-0.696,109.335-3.018,110.728-3.25
			c1.393-0.232,1.625-0.232,4.178-2.553c2.553-2.321,22.285-55.944,29.945-72.194c7.66-16.249,12.071-22.517,5.339-28.088
			c-6.732-5.571-35.052,3.25-41.784,5.339c-6.732,2.089-69.176,22.285-76.605,22.981c-7.428,0.696-43.177,0.696-43.177,0.696
			l-76.14-5.339c0,0-13-9.053-15.321-18.107c-2.321-9.053,5.934-17.99,5.934-17.99C83.992,317.873,74.029,320.008,71.657,324.752z"
			/>
		<path style="fill:#D9D9D9;stroke:#263238;stroke-linecap:round;stroke-linejoin:round;stroke-miterlimit:10;" d="M332.746,329.106
			c-6.732-5.571-35.052,3.25-41.784,5.339c-6.732,2.089-69.176,22.285-76.605,22.981c-7.428,0.696-45.059,1.736-45.059,1.736
			l-74.258-6.378c0,0-13-9.053-15.321-18.107c-2.321-9.053,5.934-17.99,5.934-17.99c-1.66,1.186-11.623,3.321-13.995,8.065
			c-2.372,4.744-2.609,12.098-2.135,15.181c0.16,1.042,0.211,2.327,0.21,3.573l0.238,0.224c0,0,7.428,16.017,19.731,18.339
			c12.303,2.321,92.622,11.607,113.282,9.517c20.66-2.089,110.264-19.731,110.264-19.731s1.857-2.321,4.643-3.018
			c2.466-0.617,11.109-1.598,14.993-3.104C336.659,337.507,337.601,333.124,332.746,329.106z"/>
		<path style="fill:#263238;stroke:#263238;stroke-linecap:round;stroke-linejoin:round;stroke-miterlimit:10;" d="M83.599,359.682
			c1.87,1.117,3.907,1.973,6.102,2.387c11.946,2.254,88.016,11.073,111.332,9.67c1.681-2.562,5.991-8.512,13.088-14.294
			c-7.884,0.677-44.823,1.716-44.823,1.716l-63.675-5.636c-9.182-0.644-17.736-5.246-22.969-12.818
			c-0.418-0.605-0.809-1.219-1.166-1.841c0.93,3.594,2.814,11.496,2.581,15.693C83.964,356.454,83.787,358.198,83.599,359.682z"/>
		<path style="fill:#BABABA;stroke:#263238;stroke-linecap:round;stroke-linejoin:round;stroke-miterlimit:10;" d="M206.389,364.838
			c-1.459,0.148-3.354,0.246-5.823,0.246c-10.186,0-105.41-8.054-109.2-9.238c-3.149-0.984-6.453-4.086-7.484-5.11
			c0.167,1.427,0.247,2.748,0.188,3.824c0,0,2.085,2.47,5.401,3.655c3.012,1.076,97.054,8.402,114.306,9.739
			C204.528,366.999,205.393,365.953,206.389,364.838z"/>
		<path style="fill:#92E3A9;" d="M332.493,345.734l-14.993,3.104l-4.643,3.018c0,0,0.668,5.133-4.262,8.522
			c-4.929,3.389-2.478,4.965-25.584,8.97c-23.107,4.005-84.724,24.647-84.724,24.647s-20.026,23.107-23.723,25.263
			c-3.697,2.157-4.621,2.465-6.162,2.465c-1.54,0-81.335-9.859-85.648-10.475c-4.313-0.616-3.389,1.848-4.313-0.616
			c-0.924-2.465-3.389-41.9-4.313-46.829c-0.601-3.204-2.972-9.515-4.776-14.19c-0.582,5.102-9.464,48.026-11.377,58.195
			c2.116,5.62,9.199,11.6,11.837,13.224c3.018,1.857,70.105,14.857,112.353,14.16c42.248-0.696,109.335-3.018,110.728-3.25
			c1.393-0.232,1.625-0.232,4.178-2.553c2.553-2.321,22.285-55.944,29.945-72.194C329.153,352.665,331.034,348.913,332.493,345.734z
			"/>
		<g>
			<path style="fill:#263238;stroke:#263238;stroke-linecap:round;stroke-linejoin:round;stroke-miterlimit:10;" d="
				M329.822,346.367l-11.932,2.47l-4.643,3.018c0,0,0.119,3.498-2.587,6.59c-3.537,4.043-4.411,5.848-20.939,9.642
				c-2.517,9.526-8.401,33.132-5.704,36.074c3.389,3.697,12.94,12.632,12.94,12.632L329.822,346.367z"/>
			<polygon style="fill:#999999;stroke:#263238;stroke-linecap:round;stroke-linejoin:round;stroke-miterlimit:10;" points="
				317.128,372.558 286.011,382.417 314.047,377.18 			"/>
			<polygon style="fill:#999999;stroke:#263238;stroke-linecap:round;stroke-linejoin:round;stroke-miterlimit:10;" points="
				310.042,388.579 285.05,395.641 307.269,393.2 			"/>
			<path style="fill:#BABABA;stroke:#263238;stroke-linecap:round;stroke-linejoin:round;stroke-miterlimit:10;" d="
				M328.953,346.547l-11.063,2.29l-0.386,0.107c-1.44,0.399-2.734,1.204-3.729,2.319l-0.528,0.592c0,0-0.139,3.498-2.587,6.59
				c-3.334,4.212-4.411,5.848-20.939,9.642c-0.356,1.346-0.78,2.98-1.237,4.791c4.098-0.903,23.641-5.451,29.422-11.232
				C322.383,357.169,326.71,350.335,328.953,346.547z"/>
		</g>
		<path style="fill:#263238;stroke:#263238;stroke-linecap:round;stroke-linejoin:round;stroke-miterlimit:10;" d="M69.589,355.792
			c0,0,3.389,7.394,3.697,12.94c0.308,5.546,0.924,20.642,0.924,20.642l-12.323,7.394L69.589,355.792z"/>
		
			<line style="fill:none;stroke:#FFFFFF;stroke-linecap:round;stroke-linejoin:round;stroke-miterlimit:10;" x1="82.529" y1="363.186" x2="80.372" y2="405.394"/>
		
			<line style="fill:none;stroke:#FFFFFF;stroke-linecap:round;stroke-linejoin:round;stroke-miterlimit:10;" x1="194.056" y1="375.201" x2="171.257" y2="418.641"/>
		<path style="opacity:0.49;fill:#FFFFFF;" d="M177.083,386.474c-34.198-0.616-90.945-7.38-90.945-7.38l0.088,2.577l-1.232,14.48
			l-0.308,3.697c0,0,59.286,9.039,83.933,8.114l1.715-3.801l5.237-14.788L177.083,386.474z"/>
		<path style="opacity:0.3;" d="M692.91,324.515c0,0-0.497-14.047-2.731-26.14c-3.08-5.435-7.87-11.208-15.203-14.675
			c-16.945-8.01-35.738,12.323-41.591,20.026c-5.854,7.702-10.475,7.394-10.475-6.778c0-14.172,16.945-26.803,16.945-26.803
			s-191.629,60.077-193.786,60.385c-2.157,0.308-3.081,12.323-11.091,13.864s-8.01-18.177-37.895-25.571
			c-29.884-7.394-55.147,34.814-60.385,42.824c-5.237,8.01-7.394,4.929-7.394,4.929l-3.389-4.929c0,0-32.041,76.713-36.662,84.723
			c-2.047,3.548-9.351,7.577-16.855,10.968c3.604,0.003,6.062-0.063,6.816-0.221c4.507-0.949,59.065-8.065,59.065-8.065
			s-4.27-34.396-0.712-53.609s14.944-47.442,25.856-57.642c10.912-10.2,23.247-17.316,40.089-11.386
			c16.842,5.93,26.568,24.907,26.33,50.526c-0.237,25.619-9.963,60.963-9.963,60.963l45.07-9.251l124.772-28.228
			c0,0,44.121-4.744,44.121-5.456c0-0.712-5.93-26.093-6.879-44.833s12.335-44.833,21.823-56.219
			c9.488-11.386,22.535-8.777,30.363-2.372c7.828,6.405,11.149,28.702,11.149,28.702L692.91,324.515z"/>
		<path style="opacity:0.35;fill:#FFFFFF;" d="M603.501,299.104c0,0-25.879,71.476-28.344,73.324
			c-2.465,1.849-45.597,12.94-45.597,12.94s39.435-11.091,43.44-17.253C577.006,361.954,603.501,299.104,603.501,299.104z"/>
		<path style="fill:#5E5E5E;stroke:#263238;stroke-linecap:round;stroke-linejoin:round;stroke-miterlimit:10;" d="M589.724,400.422
			c0,0,44.121-4.744,44.121-5.456c0-0.712-5.93-26.093-6.879-44.833c-0.01-0.191-0.009-0.387-0.016-0.579
			c-5.75,1.2-15.622,3.484-18.828,5.621c-4.621,3.081-13.864,12.015-38.511,20.642c-24.647,8.626-121.078,29.884-121.078,29.884
			l-8.01-7.702l-12.771,2.303c-2.923,19.611-7.871,37.599-7.871,37.599l45.07-9.251L589.724,400.422z"/>
		<path style="fill:#263238;stroke:#263238;stroke-linecap:round;stroke-linejoin:round;stroke-miterlimit:10;" d="M457.469,425.111
			c2.465,0.924,5.546,0,5.546,0s108.138-24.647,113.992-27.728c5.854-3.081,26.495-38.819,31.117-42.208
			c-4.621,3.081-13.864,12.015-38.511,20.642c-24.647,8.626-121.078,29.884-121.078,29.884l-8.01-7.702
			C440.524,398,455.004,424.187,457.469,425.111z"/>
		<path style="fill:#263238;stroke:#263238;stroke-linecap:round;stroke-linejoin:round;stroke-miterlimit:10;" d="M336.185,418.685
			l-36.71,5.244c-4.835,11.127-8.809,19.993-10.221,22.44c-2.047,3.548-9.351,7.577-16.855,10.968c0.438,0,0.857,0,1.26-0.002
			c0.02,0,0.04,0,0.059,0c0.803-0.004,1.533-0.012,2.184-0.024c0.035-0.001,0.067-0.001,0.101-0.002
			c0.275-0.006,0.534-0.012,0.779-0.019c0.049-0.001,0.099-0.003,0.147-0.004c0.53-0.017,0.982-0.038,1.353-0.064
			c0.047-0.003,0.088-0.007,0.132-0.01c0.132-0.01,0.251-0.021,0.359-0.033c0.039-0.004,0.08-0.008,0.115-0.013
			c0.128-0.016,0.242-0.032,0.327-0.05c4.507-0.949,59.065-8.065,59.065-8.065S336.448,434.276,336.185,418.685z"/>
		<g>
			<path style="fill:none;stroke:#263238;stroke-linecap:round;stroke-linejoin:round;stroke-miterlimit:10;" d="M441.672,381.839
				c-0.431,5.677-0.84,9.074-0.84,9.074"/>
			<path style="fill:none;stroke:#263238;stroke-linecap:round;stroke-linejoin:round;stroke-miterlimit:10;" d="M429.433,295.099
				c0,0,10.783,14.172,12.632,42.208c0.948,14.372,0.6,28.097,0.036,38.061"/>
			<path style="fill:none;stroke:#263238;stroke-linecap:round;stroke-linejoin:round;stroke-miterlimit:10;" d="M582.009,277.939
				c2.47,4.364,4.548,10.337,4.548,18.084c0,19.101-20.642,70.244-26.495,77.638"/>
			<path style="fill:none;stroke:#263238;stroke-linecap:round;stroke-linejoin:round;stroke-miterlimit:10;" d="M573.925,268.604
				c0,0,2.511,1.653,5.293,5.178"/>
			<path style="fill:none;stroke:#263238;stroke-linecap:round;stroke-linejoin:round;stroke-miterlimit:10;" d="M373.536,295.845
				c4.876-1,10.027-1.91,15.467-2.708"/>
			<path style="fill:none;stroke:#263238;stroke-linecap:round;stroke-linejoin:round;stroke-miterlimit:10;" d="M296.458,332.525
				c0,0,17.226-22.573,69.478-34.999"/>
		</g>
		<path style="opacity:0.3;" d="M154.597,282.289c-2.674,0.857-5.042,1.906-6.898,3.199c-12.62,8.796-40.536,40.536-44.743,48.184
			c0,0,30.976-27.151,48.184-36.329c17.209-9.178,45.052-18.372,45.052-18.372C195.328,279.187,170.641,279.994,154.597,282.289z"/>
		<path style="opacity:0.61;fill:#FFFFFF;" d="M222.652,345.91c0,0,68.07-46.272,132.698-50.861c0,0-36.329,1.147-78.395,15.297
			C234.889,324.495,222.652,345.91,222.652,345.91z"/>
		<path style="opacity:0.3;" d="M289.721,368.087c-0.902,0.458-3.158,0.713-6.32,1.261c-23.106,4.005-84.724,24.647-84.724,24.647
			s-20.026,23.107-23.723,25.263c-3.697,2.157-4.621,2.465-6.162,2.465c-1.54,0-81.335-9.859-85.648-10.475
			c-4.313-0.616-3.389,1.848-4.313-0.616c-0.924-2.465-3.389-41.9-4.313-46.829c-0.601-3.204-3.283-10.439-5.088-15.115
			c-0.268,1.322-1.113,5.498-2.245,11.08l7.113,59.444l93.731,12.649l114.671-31.93L289.721,368.087z"/>
		<path style="opacity:0.24;fill:#FFFFFF;stroke:#263238;stroke-linecap:round;stroke-linejoin:round;stroke-miterlimit:10;" d="
			M378.37,219.194c-52.661-2.135-71.637,3.084-71.637,3.084s-7.828,3.321-20.163,9.251c-12.335,5.93-73.298,43.647-74.958,45.781
			c-1.661,2.135-0.237,3.558,1.66,4.27c0.391,0.147,5.882,0.554,14.404,1.11c60.37-15.697,162.735-42.311,225.738-58.678
			C444.085,222.781,419.116,220.846,378.37,219.194z"/>
		<path style="fill:#263238;stroke:#263238;stroke-linecap:round;stroke-linejoin:round;stroke-miterlimit:10;" d="M252.12,436.31
			l-44.673,18.128l62.801,0.971c0,0,13.92-5.827,16.51-8.74c2.59-2.913,5.827-11.33,5.827-11.33L252.12,436.31z"/>
		<path style="opacity:0.24;fill:#FFFFFF;stroke:#263238;stroke-linecap:round;stroke-linejoin:round;stroke-miterlimit:10;" d="
			M158.181,312.16c0,0-15.089,3.946-25.767,14.16c-7.553,7.224-11.136,13.969-10.545,17.8l88.125-28.456
			C194.494,313.642,166.992,310.996,158.181,312.16z"/>
		<path style="fill:#FFFFFF;" d="M320.133,346.042c0,0,4.833-8.156-2.719-10.271c-7.552-2.115-87.302,20.542-87.302,20.542
			l58.604-19.031c0,0,35.042-9.667,40.781-7.552c5.74,2.115,5.438,6.948,1.51,14.802L320.133,346.042z"/>
		<path style="fill:#FFFFFF;" d="M313.79,337.281c0,0-16.312,2.417-17.823,3.927c-1.51,1.51-2.115,9.062,0,9.667
			c2.115,0.604,10.875,0.604,14.5-0.906s4.833-4.229,4.833-6.344C315.3,341.511,315.3,336.375,313.79,337.281z"/>
		<path style="fill:#FFFFFF;" d="M73.332,326.709l3.625,22.052l-7.435-8.827c0,0,3.787,7.385,6.914,11.206
			c3.126,3.821,6.253,6.948,6.253,6.948s-0.521-6.427-0.868-10.943c-0.347-4.516-4.864-14.243-4.169-18.759
			c0.695-4.516,3.3-8.164,3.3-8.164S72.834,322.079,73.332,326.709z"/>
		<path style="fill:none;stroke:#263238;stroke-linecap:round;stroke-linejoin:round;stroke-miterlimit:10;" d="M289.721,368.087
			c0,0-15.354,3.019-27.044,6.01"/>
		<path style="fill:none;stroke:#263238;stroke-linecap:round;stroke-linejoin:round;stroke-miterlimit:10;" d="M249.082,377.903
			l-50.405,16.092c0,0-23.817,27.953-27.896,27.681"/>
		
			<line style="fill:none;stroke:#263238;stroke-linecap:round;stroke-linejoin:round;stroke-miterlimit:10;" x1="85.955" y1="411.072" x2="161.266" y2="420.587"/>
		<path style="fill:none;stroke:#263238;stroke-linecap:round;stroke-linejoin:round;stroke-miterlimit:10;" d="M70.715,351.759
			c0,0,3.103,8.8,3.803,12.043c0.7,3.243,3.703,41.867,3.703,41.867"/>
		<path style="fill:none;stroke:#263238;stroke-linecap:round;stroke-linejoin:round;stroke-miterlimit:10;" d="M318.382,217.97
			c-5.385,0.974-10.604,2.692-15.536,5.063c-3.427,1.648-8.597,3.962-16.276,7.072c-18.74,7.591-73.061,43.647-77.805,45.544
			c-4.744,1.898-11.623,3.084-12.572,3.321c-0.949,0.237-30.6,1.186-46.019,4.033c-15.419,2.846-32.498,12.098-41.275,17.079
			c-8.777,4.981-21.586,15.419-23.247,16.605c-1.66,1.186-11.623,3.321-13.995,8.065c-2.372,4.744-2.609,12.098-2.135,15.181
			c0.474,3.084,0,8.302,0,8.302s-11.861,58.591-12.572,61.675c-0.712,3.084-5.693,13.995-3.795,16.367
			c1.898,2.372,7.828,7.353,15.182,8.539c7.353,1.186,29.651-0.474,29.651-0.474l71.637,9.014c0,0,21.112,11.386,30.6,11.861
			c9.488,0.474,74.484,2.846,78.991,1.898c4.507-0.949,59.065-8.065,59.065-8.065s-4.27-34.395-0.712-53.609
			c3.558-19.214,14.944-47.442,25.856-57.642c10.912-10.2,23.247-17.316,40.089-11.386c16.842,5.93,26.568,24.907,26.33,50.526
			c-0.237,25.619-9.963,60.963-9.963,60.963l45.07-9.251l124.772-28.228c0,0,44.121-4.744,44.121-5.456
			c0-0.712-5.93-26.093-6.879-44.833c-0.949-18.74,12.335-44.833,21.823-56.219c9.488-11.386,22.535-8.777,30.363-2.372
			c7.828,6.405,11.149,28.703,11.149,28.703l2.609,4.27c0,0-0.712-20.163-4.27-32.972c-3.558-12.809-6.642-23.958-14.707-32.26
			c-8.065-8.302-17.791-10.2-24.67-10.437c-6.879-0.237-21.586-3.321-23.484-4.033c-1.898-0.712-98.917-25.382-98.917-25.382
			s-46.493-9.963-103.898-9.488C369.129,210.387,362.444,209.998,318.382,217.97z"/>
	</g>
</g>
</svg>
