<?xml version="1.0" encoding="utf-8"?>
<!-- Generator: Adobe Illustrator 27.5.0, SVG Export Plug-In . SVG Version: 6.00 Build 0)  -->
<svg version="1.1" id="Capa_1" xmlns="http://www.w3.org/2000/svg" xmlns:xlink="http://www.w3.org/1999/xlink" x="0px" y="0px"
	 viewBox="0 0 2122 2122" style="enable-background:new 0 0 2122 2122;" xml:space="preserve">
<g>
	<path style="fill:#1A2E59;" d="M932.386,694.037c150.556,81.176,430.785,105.025,479.026,18.156
		c58.528-105.407-105.056-249.708-218.902-292.085c-113.828-42.367-211.238-49.393-357.897-6.743
		C662.774,463.338,781.829,612.861,932.386,694.037z"/>
	<g>
		<path style="fill:#9B7984;" d="M1285.394,650.581c-3.752,38.801,1.201,80.596,15.055,117.095
			c12.394,32.648,47.539,58.513,70.123,84.752c25.077,29.152,48.524,59.237,64.392,94.537
			c15.693,34.896,31.427,64.523,28.796,104.477c-2.37,36.163-23.834,63.539-22.421,100.17
			c2.282,59.132,41.059,95.802,55.987,151.226c6.745,25.028,9.841,58.156,5.832,84.384c-3.605,23.552-17.62,40.933-14.151,67.137
			c3.396,25.659,18.129,45.201,30.684,67.283c17.661,31.089,15.427,61.246,10.745,97.417
			c-8.802,67.961-65.232,104.591-130.384,118.445c-60.374,12.828-123.1-24.842-182.264-36.445
			c-83.782-16.436-154.267-66.112-210.344-129.644c-42.762-48.448-87.137-94.625-123.251-148.578
			c-36.784-54.937-57.028-123.907-77.02-186.371c-28.709-89.68-54.504-177.375-30.782-271.354
			c15.829-62.708,70.801-134.386,61.746-200.466c-9.988-72.964-9.125-184.783,29.474-248.298
			c38.253-62.935,63.958-93.005,149.129-100.282C1261.762,395.139,1289.55,607.585,1285.394,650.581z"/>
		<path style="fill:#B9B7B3;" d="M1019.613,521.447c-1.413,0.339-2.809,0.726-4.18,1.154c-19.807,6.18-34.548,4.059-54.928,5.818
			c-26.932,2.324-80.976,8.77-83.685,44.036c0,0-4.117,53.559-4.131,53.703c-1.469,19.098-3.598,37.164-2.97,56.672
			c0.629,19.664,12.521,22.567,18.161,39.432c5.213,15.595,2.752,33.564,3.542,49.707c1.437,29.323,6.714,57.135,24.957,81.252
			c11.383,15.04,49.595,45.89,50.072,65.627c0.185,7.893-10.797,19.873-14.097,28.029c-5.018,12.409-5.727,24.528-7.81,37.576
			c-3.808,23.81-29.973,36.508-32.894,62.423c-5.914,52.477,42.867,69.373,80.16,89.044c19.807,10.456,43.174,15.33,65.547,15.749
			c29.434,0.555,58.594-6.163,88.316-4.809c54.117,2.484,112.07,0.516,163.063-20.188c35.622-14.468,80.272-49.347,26.06-71.566
			c-22.487-9.216-42.385-11.072-64.094-23.383c-23.949-13.579-26.918-31.255-32.348-58.204c-4.729-23.44-14.465-49.403-6.365-73.471
			c13.128-39.067,34.097-77.086,36.163-119.041c1.114-22.679-9.327-36.275-13.885-56.794c-4.446-20.017-1.615-35.337-16.404-52.726
			c-23.964-28.175-52.17-50.282-73.649-80.257c-18.726-26.134-39.785-52.984-71.921-62.577
			C1069.725,521.915,1042.85,515.8,1019.613,521.447z"/>
		<g>
			<path style="fill:#E4B142;" d="M859.536,1061.786c-115.709,0.065-164.271,189.17-184.846,259.795
				c-19.629,67.329-58.06,182.156-81.281,247.932c-14.353,40.665-3.081,56.979,42.302,85.765
				c69.695,44.185,115.782,10.538,127.344-15.232c40.438-90.124,196.393-359.156,213.852-442.79
				C995.876,1106.387,859.536,1061.786,859.536,1061.786z"/>
		</g>
		<g>
			<path style="fill:#F8A894;" d="M1232.561,1043.391c-10.456,0.015-116.54-77.811-68.653-272.275l-22.989-28.726
				c-54.799,13.7-185.272,13.364-161.124,68.117c95.061,215.554-68.131,244.986-76.472,244.986
				c-37.622,0-30.806,180.345,118.201,180.345c149.007,0,192.889-135.751,201.983-155.495
				C1233.876,1057.824,1232.561,1043.391,1232.561,1043.391z"/>
			<path style="fill:#DAD6D2;" d="M1170.372,966.927c-18.251-43.819-28.126-107.851-6.463-195.811l-19.035-23.785
				c-58.672,10.109-117.926,21.661-167.538,46.328c-0.977,4.96-0.331,10.519,2.461,16.848
				c18.782,42.599,26.779,78.518,29.362,108.518c23.203,1.299,49.822-0.952,73.865,2.887
				C1118.265,927.514,1149.378,948.812,1170.372,966.927z"/>
		</g>
		<g>
			<path style="fill:#F7C047;" d="M746.451,1818.025c8.874,1.656,17.773,3.213,26.706,4.536c15.425,2.285,46.884,5.72,72.026,7.615
				c18.565,1.406,37.137,2.446,55.743,3.366c138.381,6.841,278.65-7.987,409.955-53.008
				c-19.639-130.871-34.791-230.57-31.539-259.657c31.247-279.892,81.054-402.169,70.938-432.361
				c-8.958-26.731-49.001-37.72-117.719-45.125c0,0-61.03-54.277-62.19-76.464l-173.706,22.187
				c-23.719,43.876-82.143,64.329-93.341,66.38c-18.163,3.34-43.788,6.293-43.788,6.293
				c-11.934,10.482-117.517,133.998-88.486,538.209C772.156,1615.405,760.909,1700.64,746.451,1818.025z"/>
			<path style="fill:#DAD6D2;" d="M1272.598,1792.748c12.835-3.793,25.6-7.869,38.284-12.215
				c-19.639-130.871-34.791-230.57-31.539-259.657c22.662-202.985,55.066-323.01,67.315-385.199v-0.01
				c-10.287,1.218-20.438,3.123-30.331,6.295c-0.008,0.007-0.008,0.007-0.024,0.024c-48.538,58.962-61.237,124.18-69.21,198.174
				c-7.825,72.696,0.373,306.083,6.141,336.579C1260.415,1714.741,1266.795,1753.567,1272.598,1792.748z"/>
		</g>
		<g>
			<path style="fill:#F8A894;" d="M1178.238,588.318c-30.596-72.114-90.35-81.088-90.35-81.088
				c-12.144-2.816-24.309-4.984-36.341-6.397v-1.35c-2.394,0.146-4.808,0.414-7.213,0.638c-2.404-0.224-4.816-0.492-7.213-0.638
				v1.35c-12.029,1.413-24.197,3.581-36.338,6.397c0,0-59.756,8.974-90.35,81.088c-19.51,46.004-9.45,67.322-6.738,110.618
				c2.575,41.227,1.218,49.49,8.665,83.015c9.498,42.728,45.434,78.192,82.282,104.864c17.064,11.198,33.751,15.476,49.692,14.733
				c15.944,0.743,32.628-3.535,49.693-14.733c36.85-26.672,72.786-62.136,82.282-104.864c7.447-33.525,6.093-41.788,8.665-83.015
				C1187.684,655.64,1197.755,634.323,1178.238,588.318z"/>
		</g>
		<path style="fill:#9B7984;" d="M1189.984,411.275c-27.432-25.651-170.839-48.935-250.507,9.73
			c-62.764,46.216-88.871,114.013-84.813,191.452c0.806,15.284,2.555,30.499,4.969,45.612c1.379,8.575,11.756,47.627,11.756,47.627
			c71.113-18.541,54.606-107.568,133.336-110.326c66.854-2.341,84.347-56.448,84.347-56.448
			c10.385,74.616,22.711,95.385,54.494,114.265c23.656,14.055,16.328,76.335,29.77,61.529c15.951-17.54,8.965,19.025,8.965,19.025
			s-13.062,25.607-4.953,19.106c-10.441,19.14,8.027,89.429,38.833,122.189c0,0,53.413-165.136,61.973-235.403
			C1296.875,486.013,1217.143,436.673,1189.984,411.275z"/>
		<g>
			<path style="fill:#F8A894;" d="M1171.967,719.019c7.231-29.364,52.438-55.922,58.231-9.764
				c4.777,38.034-39.059,116.564-58.667,44.77L1171.967,719.019z"/>
		</g>
		<path style="fill:#DAD6D2;" d="M920.623,1049.893c0,0,40.633,80.523,198.344,43.561c88.13-20.655,107.108-56.002,107.108-56.002
			l-16.144-15.685L920.623,1049.893z"/>
		<path style="fill:#F7C047;" d="M1008.156,951.345c0.621-7.196,1.807-27.062,1.281-32.321c-4.702,2.405-60.979-1.605-52.265,47.902
			c4.283,24.319,4.646,33.927-14.46,40.64c-12.319,4.324-18,28.489-22.09,42.326c0,0,149.918,93.818,289.308-28.126
			c45.634-39.922-15.403-66.209-15.403-66.209c-5.8-16.266,6.529-33.257,0-49.008c-12.828-30.918-31.322-23.946-42.584-24.843
			c0.467,26.119-2.68,33.427-30.217,47.888C1101.612,940.147,1046.828,956.444,1008.156,951.345z"/>
		<g>
			<g>
				<g>
					<g>
						<path style="fill:#9B7984;" d="M1064.95,680.064c0.059,0.073,0.119,0.147,0.179,0.22c1.64,2.023,4.588,1.828,6.675,0.861
							c4.691-2.173,9.035-4.63,14.138-5.721c3.387-0.724,7.142,0.01,10.481,0.671c5.009,0.992,9.708,3.19,14.732,4.035
							c5.168,0.868,11.53-1.881,9.815-8.115c-1.549-5.631-9.536-7.47-14.317-9.079c-4.423-1.488-9.122-2.779-13.816-2.852
							c-10.362-0.16-20.558,5.207-27.708,12.409c-1.624,1.635-2.29,4.681-0.861,6.675
							C1064.484,679.476,1064.711,679.774,1064.95,680.064L1064.95,680.064z"/>
					</g>
				</g>
				<g>
					<g>
						<path style="fill:#9B7984;" d="M977.678,679.318c0.036-0.049,0.072-0.099,0.107-0.148c1.436-1.988,0.757-5.044-0.861-6.675
							c-7.124-7.18-16.475-11.783-26.604-12.386c-4.593-0.273-9.291,1.073-13.636,2.415c-4.868,1.503-12.157,3.185-14.93,7.918
							c-3.295,5.626,2.015,9.835,7.245,9.945c5.092,0.108,10.55-2.824,15.458-4.027c3.722-0.912,7.502-1.344,11.323-1.017
							c5.103,0.437,9.956,3.71,14.47,5.803c2.082,0.965,5.041,1.164,6.675-0.861C977.182,679.968,977.434,679.646,977.678,679.318
							L977.678,679.318z"/>
					</g>
				</g>
			</g>
			<g>
				<g>
					<g>
						<g>
							<path style="fill:#2D0000;" d="M960.316,709.221c-1.605-4.018-4.483-7.078-9.136-7.078c-6.114,0-10.689,6.003-9.066,11.902
								C945.398,725.985,964.606,719.963,960.316,709.221L960.316,709.221z"/>
						</g>
					</g>
					<g>
						<g>
							<path style="fill:#2D0000;" d="M1101.787,707.133c-4.838-11.185-22.727-1.675-16.381,9.158
								C1091.567,726.809,1106.407,717.815,1101.787,707.133L1101.787,707.133z"/>
						</g>
					</g>
				</g>
			</g>
			<path style="fill:#F69984;" d="M1148.837,736.777c-26.699-14.411-89.938,34.387-48.066,57.559
				C1142.64,817.517,1175.534,751.194,1148.837,736.777z"/>
			<path style="fill:#F69984;" d="M905.865,735.913c0.879,14.709,2.163,25.761,6.672,46.077c0.872,3.883,2.017,7.683,3.301,11.459
				c9.963,6.47,22.575,8.404,36.153,0.887C992.89,771.696,933.531,724.656,905.865,735.913z"/>
			<g>
				<g>
					<g>
						<path style="fill:#BDB7B2;" d="M978.695,680.801c2.6,4.993,5.818,9.601,8.522,14.539c2.959,5.403,4.976,11.067,7.311,16.734
							c0.221,0.536,1.154,0.538,1.103-0.149c-0.858-11.539-8.915-23.182-16.826-31.209
							C978.748,680.658,978.659,680.732,978.695,680.801L978.695,680.801z"/>
					</g>
				</g>
				<g>
					<g>
						<path style="fill:#BDB7B2;" d="M1001.898,737.041c0.794,7.885,0.237,15.741-1.603,23.448
							c-1.287,5.392-3.263,10.599-4.051,16.105c-1.451,10.136,13.654,12.043,20.709,8.97c0.44-0.191,0.124-0.918-0.325-0.77
							c-5.49,1.805-12.272,0.344-16.608-3.469c-3.196-2.811-0.256-9.915,0.665-13.389c2.791-10.525,4.116-20.183,1.901-30.989
							C1002.509,736.563,1001.858,736.646,1001.898,737.041L1001.898,737.041z"/>
					</g>
				</g>
			</g>
			<g>
				<path style="fill:#F0EFEE;" d="M984.564,808.65c29.934,4.477,81.726-7.552,81.726-7.552c4,42.051-50.889,63.317-60.038,40.631
					C996.554,817.717,984.564,808.65,984.564,808.65z"/>
			</g>
			<g>
				<g>
					<g>
						<path style="fill:#DAD6D2;" d="M1023.513,864.099c5.745-3.186,11.347-3.831,17.746-4.264c1.358-0.092,1.704-1.664,0.66-2.436
							c-6.538-4.829-15.212-0.661-20.43,4.077C1020.049,862.784,1021.89,864.999,1023.513,864.099L1023.513,864.099z"/>
					</g>
				</g>
			</g>
		</g>
	</g>
	<path style="fill:#0F2147;" d="M909.94,456.337c0,0,54.292-93.497,108.504-154.542c15.281-17.204,57.293-20.826,76.447-7.635
		c52.421,36.131,79.417,39.212,103.678,34.309c52.009-10.531,74.004,36.548,79.926,86.153c5.179,43.415-0.339,159.19-0.339,159.19
		s-80.128-109.836-162.054-121.802C1034.168,440.069,909.94,456.337,909.94,456.337z"/>
	<path style="fill:#1A2E59;" d="M1192.51,420.108c-113.828-42.367-211.238-49.393-357.897-6.743
		c-131.489,38.241-92.594,134.742,0.339,214.327c0.444-7.262,0.663-11.732,0.663-11.732c11.359-76.828,84.837-99.112,145.545-99.926
		c60.706-0.816,190.371,8.526,283.296,114.771c12.361,28.305,19.556,58.28,19.556,58.28s4.02,40.17,19.14,74.494
		c52.299-6.672,92.576-23.147,108.26-51.386C1469.94,606.786,1306.356,462.485,1192.51,420.108z"/>
	<path style="fill:#06183D;" d="M1264.456,630.805c12.361,28.305,19.556,58.28,19.556,58.28s4.02,40.17,19.14,74.494
		c52.299-6.672,92.576-23.147,108.26-51.386c3.859-6.948,6.689-14.065,8.699-21.301c-13.215,15.707-30.677,27.147-53.3,31.176
		c-41.261,7.342-49.887-29.734-65.144-61.571c-74.019-154.405-277.754-164.547-351.507-153.419
		c-70.589,10.648-140.162,63.359-166.449,55.693c-4.205-1.233-8.1-2.904-11.844-4.767l-0.018,0.017
		c14.999,23.439,36.914,47.225,63.103,69.67c0.444-7.262,0.663-11.732,0.663-11.732c11.359-76.828,84.837-99.112,145.545-99.926
		C1041.866,515.218,1171.531,524.56,1264.456,630.805z"/>
	<path style="fill:#213870;" d="M762.731,542.231c15.686,15.313,36.212-22.27,44.28-33.208
		c15.856-21.503,31.968-42.295,56.043-55.108c58.277-30.999,136.501-13.159,198.337-4.171
		c71.042,10.327,251.369,92.584,259.293,202.347c6.568,90.937,103.687,31.934,102.927,8.826
		c-3.187-96.401-134.895-205-231.102-240.809c-113.828-42.367-211.238-49.393-357.897-6.743
		C705.672,450.865,760.232,536.916,762.731,542.231z"/>
	<path style="fill:#E59C8A;" d="M610.467,1627.41c2.701-78.521,82.764-52.362,133.095-46.392
		c68.324,8.1,289.559,26.948,309.486,23.074c19.922-3.854,42.246-5.325,65.179-17.651c26.48-14.251,50.265-22.019,80.214-22.392
		c11.094-0.137,32.08,2.438,33.678,9.642c2.816,12.677-7.971,13.807-26.521,14.283c-5.074,0.136-19.598,5.227-29.9,4.889
		c29.756,8.94,84.757-6.602,119.904,6.801c21.315,8.132,32.418,19.04,21.654,41.603c-13.167,27.61-35.87,15.854-58.801,26.777
		c-9.23,4.404-19.091,20.219-52.533,20.445c-18.694,0.12-41.108-2.034-59.02-6.477c-22.874-5.666-53.373-14.387-71.446-16.034
		c-18.073-1.651-275.559,36.316-339.056,28.999C661.183,1686.328,609.378,1659,610.467,1627.41z"/>
	<g>
		<path style="fill:#F7C047;" d="M1298.57,1054.621c143.502,3.834,111.739,170.873,120.291,243.925
			c8.173,69.651,3.542,216.861,15.515,285.578c7.391,42.497,6.229,67.089-43.303,87.921c-76.06,32.007-122.905-7.907-130.023-35.242
			c-24.906-95.58-52.492-374.292-55.817-459.672C1201.619,1084.384,1298.57,1054.621,1298.57,1054.621z"/>
		<path style="fill:#F8A894;" d="M1410.71,1650.937c7.269-78.245-75.471-62.423-126.14-62.869
			c-68.799-0.643-290.648-9.97-309.922-16.328c-19.276-6.341-41.222-10.619-62.409-25.761
			c-24.472-17.493-47.072-28.234-76.747-32.365c-10.982-1.55-32.119-1.644-34.628,5.276c-4.39,12.224,6.163,14.719,24.511,17.542
			c5.018,0.775,18.767,7.666,29.044,8.634c-30.65,5.099-83.249-17.284-119.814-8.446c-22.173,5.364-34.565,14.787-26.747,38.523
			c9.561,29.057,33.573,20.268,54.937,34.026c8.602,5.525,16.38,22.455,49.515,26.923c18.533,2.484,41.037,3.179,59.383,1.05
			c23.408-2.725,54.762-7.52,72.898-6.857c18.139,0.653,268.74,70.938,332.652,71.727
			C1352.95,1702.947,1407.8,1682.389,1410.71,1650.937z"/>
	</g>
</g>
</svg>
